<?xml version="1.0" encoding="UTF-8"?>
<svg width="74px" height="33px" viewBox="0 0 74 33" version="1.1" xmlns="http://www.w3.org/2000/svg" xmlns:xlink="http://www.w3.org/1999/xlink">
    <title>Group</title>
    <g id="Page-1" stroke="none" stroke-width="1" fill="none" fill-rule="evenodd">
        <g id="Group" transform="translate(0.000000, 1.240000)" fill-rule="nonzero">
            <path d="M25.3339808,28.6981856 C26.0115768,28.6981856 26.1710112,28.2995997 26.1710112,27.8212966 L26.1710112,26.226953 C26.1710112,25.7486499 25.8122839,25.350064 25.3339808,25.350064 L22.2648693,25.350064 C21.32085,25.350064 21.2711648,25.3142906 21.2685498,24.4632612 L21.2684045,20.4075987 C21.2684045,19.8097198 21.706849,19.3712753 22.3047278,19.3712753 L23.460627,19.3314167 L24.2976574,19.3314167 C24.7759605,19.3314167 25.1346878,18.9726894 25.1346878,18.4943863 L25.1346878,16.7804669 C25.1346878,16.3021638 24.7759605,15.9035779 24.2976574,15.9035779 L22.3047278,15.9035779 C21.706849,15.9035779 21.2684045,15.4252748 21.2684045,14.8672545 L21.2684045,4.70331376 C21.2684045,4.14529348 21.706849,3.66699039 22.2648693,3.66699039 L25.2542636,3.66699039 C25.8122839,3.66699039 26.2507284,3.22854588 26.2507284,2.67052561 L26.2507284,1.19575773 C26.2507284,0.637737459 25.8122839,0.199292956 25.2542636,0.199292956 L19.4349093,0.199292956 C18.6377375,0.199292956 18,0.876889006 18,1.67406083 L18,27.2632764 C18,28.4191755 18.6377375,28.6981856 19.4349093,28.6981856 L25.3339808,28.6981856 Z M34.8114051,29.056913 C40.1923149,29.056913 40.3916079,23.0382657 40.3118907,21.0453361 C40.3118907,20.7264674 40.0328806,20.4474573 39.6741532,20.4474573 L38.1196682,20.4474573 C37.7609409,20.4474573 37.4819307,20.7264674 37.4819307,21.0851947 C37.4819307,22.5599626 37.2427792,25.9878014 34.9708395,25.9878014 L34.9505654,25.9870632 C34.7387218,25.9752508 32.9380513,25.7744407 32.9380513,22.3606696 L32.9380513,6.41723318 C32.9380513,2.79010138 35.3694254,3.10897011 35.3694254,3.10897011 C37.163062,3.10897011 37.2826378,6.17808163 37.2427792,7.53327373 C37.2427792,7.89200105 37.5217893,8.17101119 37.8805166,8.17101119 L39.5944361,8.17101119 C39.9133048,8.17101119 40.1923149,7.93185964 40.1923149,7.61299091 C40.1923149,5.62006135 40.5111837,0 35.0106981,0 C29.8025088,0 29.7822347,6.10775826 29.7886541,6.58679813 L29.7892226,23.8752961 C29.7892226,29.2163473 34.8114051,29.056913 34.8114051,29.056913 Z M55.2898006,28.0205896 L55.2898006,1.23561633 C55.2898006,0.181578026 54.7209546,0.229678981 53.9861951,0.238276736 L53.1374367,0.239151547 C52.4996992,0.239151547 52.0213961,0.318868729 52.0213961,0.916747597 L52.0213961,14.3092342 C52.0213961,15.2259818 51.2640829,15.9832951 50.3473353,15.9832951 L49.1515776,15.9832951 C48.1551128,15.9832951 47.4775168,15.1861232 47.4775168,14.3092342 L47.4775168,0.876889006 C47.4775168,0.279010138 46.9593551,0.239151547 46.3614762,0.239151547 L45.6440216,0.239151547 C44.8468497,0.239151547 44.2091123,0.119575773 44.2091123,1.23561633 L44.2091123,27.9408724 C44.2091123,28.4988927 44.3685466,28.658327 44.6475568,28.6981856 C44.9265669,28.7380442 46.8796379,28.6981856 47.1187894,28.658327 C47.3180824,28.5786099 47.4376582,28.4191755 47.4376582,28.0604482 C47.4376582,28.0604482 47.4741261,26.8205371 47.4772973,24.6546565 L47.4775168,21.0851947 C47.4775168,20.0488714 48.23483,19.4111339 49.1515776,19.4111339 L50.2676181,19.4111339 C51.3039415,19.4111339 52.0213961,19.8495784 52.0213961,21.0851947 L52.0213961,28.0604482 C52.0213961,28.6928712 52.5074938,28.769754 53.1232175,28.7771942 L53.8548913,28.7779028 C54.6520632,28.7779028 55.2898006,28.8974786 55.2898006,28.0205896 Z" id="ECH" stroke="#000000" stroke-width="2" fill="#000000"></path>
            <g id="Group-2" transform="translate(0.000000, 10.000000)" fill="#010002">
                <path d="M73.816654,3.57335379 C73.7652993,3.38664901 73.5905627,3.25391018 73.396677,3.25391018 C72.3610965,3.25391018 71.325516,3.25391018 70.2899355,3.25391018 C69.9939932,2.34323475 69.6980509,1.43255933 69.4023262,0.521883904 C69.3799129,0.453773652 69.3581525,0.385663399 69.3357392,0.317770751 C69.335304,0.316682728 69.3346512,0.315812309 69.3344336,0.314506681 C69.3020105,0.209186035 69.2288953,0.116921667 69.1335845,0.0599092509 C69.131626,0.0586036231 69.1296676,0.0570803906 69.1277091,0.0559923674 C69.1094304,0.04532974 69.0900635,0.0370607636 69.0704791,0.0292269965 C69.0624278,0.0259629269 69.0548116,0.0224812526 69.0465426,0.0198699969 C69.0417553,0.0181291598 69.036968,0.0153002995 69.0319631,0.0139946716 C69.0221709,0.0113834159 69.0128139,0.0111658113 69.0032393,0.00920736951 C68.988007,0.00594329989 68.972557,0.00289683491 68.9568895,0.00137360242 C68.9451389,0.000285579213 68.9338234,0.000285579213 68.9220728,8.8817842e-16 C68.9046644,-0.00014963007 68.887256,8.8817842e-16 68.86963,0.00202641634 C68.8598378,0.00311443955 68.8504808,0.00507288132 68.8409062,0.00681371845 C68.8276323,0.00920736951 68.8143585,0.00986018343 68.800867,0.0135594623 C68.793686,0.0155179041 68.7873755,0.019217183 68.7804121,0.0216108341 C68.7782361,0.022263648 68.77606,0.0233516712 68.773884,0.0242220898 C68.642886,0.070789483 68.5390886,0.182638269 68.4983965,0.314289077 C68.4979613,0.315594704 68.4973085,0.316682728 68.4968733,0.317988356 C68.1787353,1.29677403 67.8610325,2.27555971 67.5426769,3.25412778 C66.5784708,3.25412778 65.6144822,3.25412778 64.650276,3.25412778 C64.5786841,3.25412778 64.5073098,3.25412778 64.4357179,3.25412778 C64.2420497,3.25412778 64.0675308,3.38686661 64.0159585,3.57357139 C63.9602517,3.77616132 64.0559978,3.9487218 64.2159372,4.06514028 C65.042182,4.66529388 65.8682092,5.26544748 66.694454,5.86560108 C66.3943772,6.78933278 66.0943004,7.71306449 65.7937884,8.63679619 C65.7718104,8.70468884 65.7496147,8.77279909 65.727419,8.84090934 C65.6153526,9.18559509 66.0551316,9.55878705 66.3669591,9.33226062 C67.2169228,8.71469865 68.0666689,8.09735428 68.9166326,7.47979231 C69.7087135,8.05557419 70.5007944,8.63070326 71.2928753,9.20648514 C71.3507582,9.24826523 71.4084234,9.29026293 71.4663062,9.33226062 C71.7783513,9.55878705 72.2176951,9.18559509 72.1056287,8.84090934 C71.7835738,7.84884978 71.4608661,6.85722543 71.1385936,5.86516587 C71.906738,5.30722757 72.6751,4.74907167 73.443462,4.19091576 C73.5013448,4.14891807 73.5590101,4.10692037 73.6168929,4.06470507 C73.7768323,3.94850419 73.8723607,3.77594371 73.816654,3.57335379 Z" id="Path"></path>
                <path d="M69.1359781,6.56868168 C69.0226061,6.48620952 68.810224,6.48620952 68.6964167,6.56868168 C68.1219405,6.98626498 67.5474642,7.40363069 66.972988,7.82099639 C67.1679617,7.22084279 67.3629355,6.62090679 67.5579093,6.02097079 C67.5801049,5.95307815 67.602083,5.88496789 67.6242787,5.81685764 C67.6886897,5.61883742 67.5783641,5.43735515 67.4243,5.32550636 C66.8733251,4.92511382 66.3223501,4.52493889 65.7711576,4.12454635 C66.3952477,4.12454635 67.0193378,4.12454635 67.6434279,4.12454635 C67.7150198,4.12454635 67.7863941,4.12454635 67.8579861,4.12454635 C68.0583999,4.12454635 68.2172513,3.99050189 68.2777454,3.80510273 C68.4905628,3.15033037 68.7033801,2.49512279 68.9161974,1.84035043 C69.1066015,2.42723014 69.2972232,3.01389226 69.4880624,3.60055437 C69.5102581,3.66866462 69.5320186,3.73655727 69.5544318,3.80466752 C69.6147083,3.99006668 69.7737773,4.12411114 69.9741912,4.12411114 C70.6698732,4.12411114 71.3655553,4.12411114 72.0610197,4.12411114 C71.5679276,4.48228838 71.0750531,4.84046562 70.581961,5.19864286 C70.5238605,5.24064055 70.4661953,5.28285585 70.4080949,5.32485355 C70.2540308,5.43713754 70.1434876,5.6181846 70.2081162,5.81620483 C70.425068,6.48446868 70.6422374,7.15251493 70.8594069,7.82056118 C70.3428135,7.44519317 69.8260024,7.07004277 69.3096266,6.69467476 C69.2517438,6.65267707 69.1940786,6.61067937 69.1359781,6.56868168 Z" id="Path"></path>
                <path d="M9.81665396,3.57335379 C9.76529926,3.38664901 9.59056273,3.25391018 9.396677,3.25391018 C8.36109651,3.25391018 7.32551602,3.25391018 6.28993554,3.25391018 C5.99399322,2.34323475 5.69805091,1.43255933 5.4023262,0.521883904 C5.37991293,0.453773652 5.35815246,0.385663399 5.33573918,0.317770751 C5.33530397,0.316682728 5.33465116,0.315812309 5.33443356,0.314506681 C5.30201046,0.209186035 5.2288953,0.116921667 5.13358447,0.0599092509 C5.13162603,0.0586036231 5.12966759,0.0570803906 5.12770915,0.0559923674 C5.10943036,0.04532974 5.09006354,0.0370607636 5.07047913,0.0292269965 C5.06242775,0.0259629269 5.05481159,0.0224812526 5.04654261,0.0198699969 C5.04175531,0.0181291598 5.03696801,0.0153002995 5.0319631,0.0139946716 C5.0221709,0.0113834159 5.0128139,0.0111658113 5.00323929,0.00920736951 C4.98800697,0.00594329989 4.97255704,0.00289683491 4.9568895,0.00137360242 C4.94513885,0.000285579213 4.93382341,0.000285579213 4.92207276,0 C4.90466439,-0.00014963007 4.88725602,0 4.86963004,0.00202641634 C4.85983783,0.00311443955 4.85048083,0.00507288132 4.84090623,0.00681371845 C4.82763235,0.00920736951 4.81435846,0.00986018343 4.80086697,0.0135594623 C4.79368602,0.0155179041 4.78737549,0.019217183 4.78041214,0.0216108341 C4.77823609,0.022263648 4.77606005,0.0233516712 4.773884,0.0242220898 C4.64288601,0.070789483 4.53908859,0.182638269 4.49839652,0.314289077 C4.49796131,0.315594704 4.4973085,0.316682728 4.49687329,0.317988356 C4.17873531,1.29677403 3.86103253,2.27555971 3.54267694,3.25412778 C2.57847077,3.25412778 1.61448221,3.25412778 0.650276047,3.25412778 C0.57868412,3.25412778 0.507309797,3.25412778 0.43571787,3.25412778 C0.24204974,3.25412778 0.0675308172,3.38686661 0.0159585172,3.57357139 C-0.039748271,3.77616132 0.0559977712,3.9487218 0.215937183,4.06514028 C1.04218201,4.66529388 1.86820922,5.26544748 2.69445405,5.86560108 C2.39437725,6.78933278 2.09430045,7.71306449 1.79378844,8.63679619 C1.77181037,8.70468884 1.74961469,8.77279909 1.72741902,8.84090934 C1.61535263,9.18559509 2.05513161,9.55878705 2.36695906,9.33226062 C3.21692279,8.71469865 4.06666892,8.09735428 4.91663264,7.47979231 C5.70871354,8.05557419 6.50079443,8.63070326 7.29287533,9.20648514 C7.35075816,9.24826523 7.40842339,9.29026293 7.46630623,9.33226062 C7.77835128,9.55878705 8.21769505,9.18559509 8.10562866,8.84090934 C7.78357379,7.84884978 7.46086611,6.85722543 7.13859364,5.86516587 C7.90673802,5.30722757 8.67510001,4.74907167 9.443462,4.19091576 C9.50134483,4.14891807 9.55901006,4.10692037 9.6168929,4.06470507 C9.77683231,3.94850419 9.87236075,3.77594371 9.81665396,3.57335379 Z" id="Path"></path>
                <path d="M5.13597812,6.56868168 C5.0226061,6.48620952 4.81022397,6.48620952 4.69641675,6.56868168 C4.12194049,6.98626498 3.54746424,7.40363069 2.97298799,7.82099639 C3.16796175,7.22084279 3.36293551,6.62090679 3.55790926,6.02097079 C3.58010494,5.95307815 3.60208301,5.88496789 3.62427868,5.81685764 C3.68868965,5.61883742 3.5783641,5.43735515 3.42430001,5.32550636 C2.87332506,4.92511382 2.32235011,4.52493889 1.77115755,4.12454635 C2.39524767,4.12454635 3.01933778,4.12454635 3.64342789,4.12454635 C3.71501981,4.12454635 3.78639414,4.12454635 3.85798606,4.12454635 C4.05839994,4.12454635 4.21725133,3.99050189 4.27774542,3.80510273 C4.49056276,3.15033037 4.7033801,2.49512279 4.91619743,1.84035043 C5.1066015,2.42723014 5.29722316,3.01389226 5.48806243,3.60055437 C5.51025811,3.66866462 5.53201857,3.73655727 5.55443185,3.80466752 C5.61470833,3.99006668 5.77377733,4.12411114 5.9741912,4.12411114 C6.66987324,4.12411114 7.36555528,4.12411114 8.06101971,4.12411114 C7.56792759,4.48228838 7.07505308,4.84046562 6.58196096,5.19864286 C6.52386052,5.24064055 6.46619529,5.28285585 6.40809486,5.32485355 C6.25403077,5.43713754 6.14348761,5.6181846 6.20811619,5.81620483 C6.42506802,6.48446868 6.64223745,7.15251493 6.85940688,7.82056118 C6.34281346,7.44519317 5.82600244,7.07004277 5.30962663,6.69467476 C5.25174379,6.65267707 5.19407856,6.61067937 5.13597812,6.56868168 Z" id="Path"></path>
            </g>
        </g>
    </g>
</svg>