<svg xmlns="http://www.w3.org/2000/svg" viewBox="0 0 411.09 351.32"><defs><style>.cls-1{fill:#232323;}.cls-2{fill:#fff;stroke:#232323;stroke-miterlimit:10;stroke-width:1.67px;}</style></defs><title>box-02</title><g id="Layer_2" data-name="Layer 2"><g id="Layer_1-2" data-name="Layer 1"><path class="cls-1" d="M206.3,16.74s-86.43-5.6-105-6.55-76.79,1.68-83.26,1.62c-15.58-.15-18.7-2.56-18,46,.69,46,1.44,194.3,1.21,218.49-.21,22.24-2.64,62.73,9.58,70.4s104.67.81,128,3.59,50.35-1.08,85.5-1.08H388c6.48,0,7.19-7.62,7.91-40.86S394.87,159.8,395,128s1.69-74-1.23-93.8S390.8,6.77,379.7,8,233.38,14,206.3,16.74Z"/><path class="cls-2" d="M397.33,333.79H24.3c-5.95,0-10.77-5.48-10.77-12.23V16c0-6.76,4.82-12.24,10.77-12.24a502,502,0,0,1,59.54-2.7c46.28.52,107.56-.78,134.9,0,15.87.45,178.59,2.7,178.59,2.7,5.94,0,14.56,9.72,12.66,27L407.62,107s-1,100.44.47,149.61c.36,12.26,0,65,0,65C408.09,328.31,403.27,333.79,397.33,333.79Z"/></g></g></svg>