<svg xmlns="http://www.w3.org/2000/svg" viewBox="0 0 290.95 241.49"><defs><style>.cls-1{fill:#232323;}.cls-2{fill:#fff;stroke:#232323;stroke-miterlimit:10;stroke-width:1.38px;}</style></defs><title>box-01</title><g id="Layer_2" data-name="Layer 2"><g id="Layer_1-2" data-name="Layer 1"><path class="cls-1" d="M206.3,11.62s-86.43-3.85-105-4.5S24.55,8.27,18.08,8.23C2.5,8.13-.62,6.47.09,39.85.78,71.47,1.53,173.34,1.3,190c-.21,15.28-2.64,43.1,9.58,48.37s104.67.55,128,2.47,50.35-.75,85.5-.75H268c6.48,0,7.19-5.23,7.91-28.07S274.87,109.9,275,88.05s1.69-50.82-1.23-64.44-3-18.84-14.11-18S233.38,9.74,206.3,11.62Z"/><path class="cls-2" d="M277.33,229.45H24.3c-5.95,0-10.77-3.77-10.77-8.41V11.13c0-4.64,4.82-8.41,10.77-8.41,0,0,25.53-2.12,59.54-1.85,46.28.35,107.56-.54,134.9,0,15.87.3,58.59,1.85,58.59,1.85,5.94,0,14.56,6.68,12.66,18.55L287.62,73.6s-1,69,.47,102.78c.36,8.43,0,44.66,0,44.66C288.09,225.68,283.27,229.45,277.33,229.45Z"/></g></g></svg>