<svg xmlns="http://www.w3.org/2000/svg" viewBox="0 0 378.68 396.51"><defs><style>.cls-1{fill:#232323;}.cls-2{fill:none;stroke-width:3px;}.cls-2,.cls-3{stroke:#232323;stroke-linecap:round;stroke-linejoin:round;}.cls-3{fill:#fff;stroke-width:2.55px;}</style></defs><title>calendar</title><g id="Layer_2" data-name="Layer 2"><g id="Layer_1-2" data-name="Layer 1"><path class="cls-1" d="M11.7,101.54c41.92-.42,292.54-3.06,335.19-6.67,3.33-.28,5.84-3.65,5.65-7.55l-1.67-34.44c-.39-8.13-6.13-14.43-13-14.3L21.15,44.72a4.9,4.9,0,0,1-2-.36C16,43.06,4.27,41.59,5.53,94.56,5.62,98.46,8.36,101.57,11.7,101.54Z"/><path class="cls-2" d="M5,38.15s347.12-3.4,349.67-2.55,4.26,215.25,2.55,245.88,0,80-62.1,90.18-142.93-.85-180.37,1.7S8.41,377.62,8.41,377.62s4.26-100.4,1.7-135.28S-3.5,70.48,4.16,39.85"/><path class="cls-2" d="M365.74,39.85s1.7,218.66.85,250.14.85,86.78-2.55,86.78-86.78,7.65-124.21,6.8-72.32-.85-103.8,0-113.15,5.11-123.36,1.7"/><path class="cls-2" d="M375.1,47.51s.85,321.6,1.7,325,0,15.32,0,15.32-37.43,4.25-68.91,3.4-90.18,2.55-109.75,3.4-154.85,0-173.56,0"/><path class="cls-3" d="M73.92,64.53s9.36-3.41,9.36-6.81v-3.4A27.81,27.81,0,0,1,68.82,33.05C67.12,17.73,96,3.27,94.34,37.3h11.91s2.19-22.9-11.06-30.63C85,.72,71.37.72,60.31,16S57.76,55.17,73.92,64.53Z"/><path class="cls-3" d="M292.57,62.83s9.36-3.41,9.36-6.81v-3.4a27.81,27.81,0,0,1-14.46-21.27C285.77,16,314.7,1.57,313,35.6H324.9S327.09,12.7,313.84,5C303.63-1,290-1,279,14.33S276.41,53.47,292.57,62.83Z"/></g></g></svg>