<svg xmlns="http://www.w3.org/2000/svg" viewBox="0 0 118.13 184.63"><defs><style>.cls-1{fill:none;stroke:#232323;stroke-linecap:round;stroke-linejoin:round;stroke-width:1.84px;}.cls-2{fill:#232323;}</style></defs><title>cat-white</title><g id="Layer_2" data-name="Layer 2"><g id="Layer_1-2" data-name="Layer 1"><path class="cls-1" d="M3.39,29S.17,37.71,1.09,42.33,4.78,57.08,6.62,59.85s0,9.22,0,15.68.92,43.35,21.22,58.11"/><path class="cls-1" d="M18.15,127.64S21.38,156.7,19.54,165c0,0-5.79,3.77-6.46,6.45-.92,3.69,1.84,7.38,5.53,6.46"/><path class="cls-1" d="M21.38,95.82S31.53,118,31.53,127.18,30.6,157.62,28.76,165c-.65,2.61-5.54.92-9.22,6.45-.9,1.35-2.36,5,0,7.38.92.93,3.68.93,3.68.93a8.66,8.66,0,0,0,6.46.92s12,.92,13.84-3.69,1.84-8.3,6.45-16.6S63.81,129,64.73,126.26L67.5,118c.92-2.77.92-19.37.92-19.37"/><path class="cls-1" d="M52.74,167.76s-2.91-1-7.45,3.2"/><path class="cls-1" d="M43.52,177a17.16,17.16,0,0,0,19.83,1.38"/><path class="cls-1" d="M50.89,158.48s4.62,9.28,12,10.21"/><path class="cls-1" d="M109,165.92s-.92,7.38-21.21,6.46-22.6-1.39-24.44,1.38c-2.76,4.13,3.22,6.92,6.91,7.84s31.36,5.53,41.51-2.77,4.15-14.29-2.31-21.67"/><path class="cls-1" d="M111.77,147.47s-.92,10.15-9.22,20.29"/><path class="cls-1" d="M112.23,144.24s4.15-20.75.46-34.58S101.62,79.22,85,70,68,65.85,61.5,58.47"/><path class="cls-1" d="M59.66,55.7s-1.39-.46,1.38-6S63.81,39.56,63.81,35,62.89,34,67.5,14.66c0,0,3-8.18-5.54-6.46-4.61.92-7.38,2.77-13.83,5.53"/><path class="cls-1" d="M46.28,14.66S33.83,9.58,25.53,12.35"/><path class="cls-1" d="M22.3,11.89A33.15,33.15,0,0,0,12.16,2.66C5.7-1,6.62,1.74,5.7,5.43S2.93,11.89,3.86,25.72"/><path class="cls-1" d="M11.23,6.35s4.62,6.46,4.62,8.31"/><path class="cls-1" d="M15.85,16.5s-2.77-2.77-2.77-.92,0,2.76-.92,2.76S11.23,20.19,8.47,22"/><path class="cls-1" d="M62,12.81s-7.38,2.77-10.14,6.46c0,0,0,.92,2.76,0S53.66,22,53.66,22"/><path class="cls-1" d="M54.58,23a2.86,2.86,0,0,1,1.85.92c.92.92,3.69,1.84,3.69,2.77"/><path class="cls-1" d="M27.84,38.64s.92,1.84,2.76,0"/><path class="cls-1" d="M26,42.33a2,2,0,0,0,3.23,0s2.31,1.84,3.23,0"/><line class="cls-1" x1="29.07" y1="39.48" x2="29.12" y2="42.55"/><path class="cls-2" d="M19.54,34s-2.77.93-.93,2.77a1.77,1.77,0,0,0,2.77-.92c0-.92,0-1.85-1.84-1.85"/><path class="cls-2" d="M41.67,35.87a1.27,1.27,0,0,0-1.84,0c-.66.65-1.85,1.84,0,2.77S43.52,37.71,41.67,35.87Z"/></g></g></svg>