<svg xmlns="http://www.w3.org/2000/svg" viewBox="0 0 176.31 380.5"><defs><style>.cls-1{fill:#f2f2f2;}.cls-2{fill:none;stroke:#232323;stroke-linecap:round;stroke-linejoin:round;stroke-width:3px;}.cls-3{fill:#232323;}.cls-4{fill:#fff;}</style></defs><title>cat-peek</title><g id="Layer_2" data-name="Layer 2"><g id="Layer_1-2" data-name="Layer 1"><path class="cls-1" d="M130.47,133.42c-2.38-4.08-11.63-12.91-15.63-16.91s-8,1-8,1c-13,8-19,32-19,32-32,8-46,30-46,30-28-1-34,5-38,7s-2,6-2,6c4,19,24,41,24,41,6,24,16.26,34,24,39,6.16,4,11.16,4,11.16,4s28.45-17.13,25-47c-3-26-9.63-34.5-4-39,10-8,23.65,27.09,48.83,18.54Z"/><path class="cls-1" d="M131,346.5s-24.09-16.65-32.09-39.65c0,0-22-8-20-28s25-17,41-26C124.6,250.21,138,245.5,143,238.5c0,0,4,16,24,17,0,0-13.33,21.59-36.17,35.29Z"/><line class="cls-2" x1="131.15" y1="1.5" x2="131" y2="247"/><line class="cls-2" x1="131" y1="290" x2="131" y2="379"/><path class="cls-2" d="M131.19,347.72S106,330.5,98,307.5c0,0-22-8-20-28s25-17,41-26c4.69-2.64,20-10,25-17,0,0-2-13,9-8,0,0,2-5,7-5s6,6,6,6,13-2,6,12c0,0,8,7-3,11,0,0-25,39-60,47"/><path class="cls-2" d="M78,279.5s-17-1-27-7c-7.91-4.74-19-14-25-38,0,0-20-22-24-41,0,0-2-4,2-6s10-8,38-7c0,0,14-22,46-30,0,0,6-24,19-32,0,0,4-5,8-1s13.26,12.83,15.63,16.92"/><path class="cls-2" d="M114,131.5s-6,5-5,16c0,0,10-1,16,1"/><path class="cls-2" d="M15,197.5s12,0,17,2c0,0-6,8-5,15"/><path class="cls-3" d="M131,180.5c-2.37-.13-8.82.44-12,6-4,7,2,14,2,14,7,2,10-5,10-5Z"/><path class="cls-3" d="M77,230.5s-4-9-13-7-10,11-10,11S69,248.5,77,230.5Z"/><circle class="cls-4" cx="123.5" cy="192" r="2.5"/><circle class="cls-4" cx="61.5" cy="232" r="2.5"/><path class="cls-3" d="M99.84,214.66s6.79-5.51,9.2-2.22-2.49,11.38-2.49,11.38-9.29,3.57-12.31-.54C91.84,220,99.84,214.66,99.84,214.66Z"/><ellipse class="cls-4" cx="99.34" cy="219.89" rx="2.62" ry="1.31" transform="translate(-110.74 101.2) rotate(-36.22)"/><path class="cls-3" d="M98,239.15h.28c6.28-.48,9.09-3.28,10.34-5.54a10.22,10.22,0,0,0,1.19-3.86,9.57,9.57,0,0,0,6.82-1.42,14.28,14.28,0,0,0,4.64-5.19c.9-1.8,1.18-4.23-.62-5.13s-2.09.21-3,2c-.22.43-2,3-4,3-.68,0-3,1-7-2-1.47-1.1-2.56-2.59-4.06-1.53s-.79,2.91.06,4.53c.63,1.24,3,5,0,8a6.54,6.54,0,0,1-3.93,1.86c-2,.15-4.07.14-4.36,1.92S96.11,239.15,98,239.15Z"/><path class="cls-3" d="M119.65,223s3,12.43-1,16c-6.7,6-17-2-17-2l6-10S118.43,224.33,119.65,223Z"/></g></g></svg>