<svg xmlns="http://www.w3.org/2000/svg" viewBox="0 0 175.95 125.55"><defs><style>.cls-1,.cls-3{fill:#fff;}.cls-1,.cls-4{stroke:#232323;}.cls-1{stroke-miterlimit:10;stroke-width:2.5px;}.cls-2{fill:#232323;}.cls-4{fill:none;stroke-linecap:round;stroke-linejoin:round;stroke-width:6.07px;}.cls-5{fill:#f2f2f2;}</style></defs><title>cat-head</title><g id="Layer_2" data-name="Layer 2"><g id="Layer_1-2" data-name="Layer 1"><path class="cls-1" d="M10.27,124.3S-8.87,101.85,8.6,68.57c0,0-1.66-40.75,0-49.07S11.1-2.13,26.9,2,61,21.16,61,21.16a124.25,124.25,0,0,1,55.73-.83S143.35,2.87,150.83,2s13.31-3.32,17.47,12.48.83,50.74.83,50.74,15,48.24-4.16,59.05Z"/><circle class="cls-2" cx="45.62" cy="82.3" r="12.06"/><circle class="cls-3" cx="47.69" cy="86.87" r="2.5"/><circle class="cls-3" cx="50.19" cy="79.39" r="3.33"/><circle class="cls-2" cx="132.95" cy="82.3" r="12.06"/><circle class="cls-3" cx="138.36" cy="79.39" r="3.33"/><path class="cls-2" d="M88.87,85.63s-8.32-.41-8.32,3.47,8.32,7.34,8.32,7.34S98,94,98,89.1C98,85.22,88.87,85.63,88.87,85.63Z"/><circle class="cls-3" cx="135.86" cy="86.87" r="2.5"/><ellipse class="cls-3" cx="92.19" cy="89.37" rx="2.5" ry="1.25"/><path class="cls-4" d="M81.8,103.51s7.48,0,7.48-6.66c0,0,1.67,8.32,7.49,6.66"/><path class="cls-5" d="M18.58,10.35c-1.45,1.45-2.49,5.82-3.32,10s-1.67,25-.84,26.62,1.67,2.49,6.66-4.16,9.15-10,12.47-11.64,8.32-2.5,3.33-7.49S21.52,7.41,18.58,10.35Z"/><path class="cls-5" d="M159.25,10.35c1.45,1.45,2.5,5.82,3.33,10s1.67,25,.83,26.62-1.66,2.49-6.65-4.16-9.15-10-12.48-11.64S136,28.65,141,23.66,156.31,7.41,159.25,10.35Z"/></g></g></svg>