<svg xmlns="http://www.w3.org/2000/svg" viewBox="0 0 431.15 49.65"><defs><style>.cls-1{font-size:55.07px;font-family:LocalBrewery-Sans, Local Brewery;letter-spacing:-0.05em;}.cls-1,.cls-9{fill:#232323;}.cls-2{letter-spacing:-0.06em;}.cls-3{letter-spacing:-0.03em;}.cls-4{letter-spacing:-0.07em;}.cls-5{letter-spacing:-0.11em;}.cls-6{letter-spacing:-0.06em;}.cls-7{letter-spacing:-0.07em;}.cls-8{letter-spacing:-0.09em;}</style></defs><title>ech-logo-long</title><g id="Layer_2" data-name="Layer 2"><g id="Layer_1-2" data-name="Layer 1"><text class="cls-1" transform="translate(21.43 47.22)">ETH<tspan class="cls-2" x="60.85" y="0">E</tspan><tspan class="cls-3" x="78.36" y="0">R</tspan><tspan x="100.72" y="0">EUM </tspan><tspan class="cls-4" x="176.99" y="0">C</tspan><tspan class="cls-5" x="197.92" y="0">A</tspan><tspan x="218.29" y="0">T H</tspan><tspan class="cls-6" x="269.56" y="0">E</tspan><tspan class="cls-7" x="287.07" y="0">R</tspan><tspan x="307.34" y="0">D</tspan><tspan class="cls-6" x="329.2" y="0">E</tspan><tspan class="cls-8" x="346.71" y="0">R</tspan><tspan x="366.04" y="0">S</tspan></text><path class="cls-9" d="M7.65,20.87l1.66,3.35a.68.68,0,0,0,.51.37l3.69.53a.68.68,0,0,1,.38,1.16l-2.68,2.61a.66.66,0,0,0-.19.6l.63,3.68a.68.68,0,0,1-1,.71L7.36,32.14a.7.7,0,0,0-.63,0L3.42,33.88a.68.68,0,0,1-1-.71l.63-3.68a.66.66,0,0,0-.19-.6L.21,26.28a.68.68,0,0,1,.37-1.16l3.7-.53a.68.68,0,0,0,.51-.37l1.65-3.35A.67.67,0,0,1,7.65,20.87Z"/><path class="cls-9" d="M424.71,20.87l1.65,3.35a.68.68,0,0,0,.51.37l3.7.53a.68.68,0,0,1,.37,1.16l-2.67,2.61a.67.67,0,0,0-.2.6l.63,3.68a.67.67,0,0,1-1,.71l-3.3-1.74a.7.7,0,0,0-.63,0l-3.31,1.74a.67.67,0,0,1-1-.71l.63-3.68a.67.67,0,0,0-.2-.6l-2.67-2.61a.68.68,0,0,1,.37-1.16l3.7-.53a.68.68,0,0,0,.51-.37l1.65-3.35A.68.68,0,0,1,424.71,20.87Z"/></g></g></svg>