<svg xmlns="http://www.w3.org/2000/svg" viewBox="0 0 33.72 28.15"><defs><style>.cls-1{fill:#232323;}</style></defs><title>icon-paw</title><g id="Layer_2" data-name="Layer 2"><g id="Layer_1-2" data-name="Layer 1"><path class="cls-1" d="M6.71,13.11A4.84,4.84,0,0,0,7,10,4.91,4.91,0,0,0,5.49,7.35a3.25,3.25,0,0,0-2.81-.79A3.28,3.28,0,0,0,.43,8.42,4.86,4.86,0,0,0,.12,11.5a4.84,4.84,0,0,0,1.53,2.69,3.44,3.44,0,0,0,2.26.86A3.31,3.31,0,0,0,4.46,15,3.27,3.27,0,0,0,6.71,13.11Z"/><path class="cls-1" d="M10,7.76a3.36,3.36,0,0,0,2.46,1.12l.29,0a3.28,3.28,0,0,0,2.41-1.72A5.19,5.19,0,0,0,15.7,4a5.16,5.16,0,0,0-1.29-2.9A3.26,3.26,0,0,0,11.66,0c-2,.24-3.28,2.36-3,4.84A5.19,5.19,0,0,0,10,7.76Z"/><path class="cls-1" d="M30.9,8.33C29,8,27.08,9.63,26.68,12s.82,4.51,2.74,4.85a3.43,3.43,0,0,0,.56,0,3.4,3.4,0,0,0,2.22-.94,4.87,4.87,0,0,0,1.44-2.74C34.05,10.84,32.82,8.66,30.9,8.33Z"/><path class="cls-1" d="M21.84,9.61h.3c1.84,0,3.39-1.8,3.59-4.16S24.55.9,22.57.74s-3.68,1.65-3.89,4.14h0C18.48,7.37,19.86,9.44,21.84,9.61Z"/><path class="cls-1" d="M17.15,11.8c-2.34,0-5,.09-7.53,2.72-2.16,2.24-4.32,5.33-4.29,7.2a7.32,7.32,0,0,0,2.09,5.14,5.76,5.76,0,0,0,4.63,1.24l.23,0,.2-.13a8.76,8.76,0,0,1,3.57-1.29,7.45,7.45,0,0,1,3,.75c.42.18.86.35,1.3.49a3.35,3.35,0,0,0,1.11.15,5.86,5.86,0,0,0,5.13-3.59c1-2.69.91-4.92-2.64-8.35C23.19,15.33,19.74,11.75,17.15,11.8Z"/></g></g></svg>