<svg xmlns="http://www.w3.org/2000/svg" viewBox="0 0 493.07 636.54"><defs><style>.cls-1{fill:#232323;}</style></defs><title>logo-232323</title><g id="Layer_2" data-name="Layer 2"><g id="Layer_1-2" data-name="Layer 1"><path class="cls-1" d="M192.34,107a1.46,1.46,0,0,0,.77.22,1.5,1.5,0,0,0,1.29-.73l4.13-6.85A1.5,1.5,0,0,0,196,98.12L191.83,105A1.5,1.5,0,0,0,192.34,107Z"/><path class="cls-1" d="M212,74.5a1.46,1.46,0,0,0,.77.22A1.5,1.5,0,0,0,214,74l4.13-6.85a1.5,1.5,0,0,0-2.57-1.55l-4.13,6.85A1.5,1.5,0,0,0,212,74.5Z"/><path class="cls-1" d="M202.16,90.77a1.54,1.54,0,0,0,.77.21,1.51,1.51,0,0,0,1.29-.72l4.13-6.85a1.5,1.5,0,0,0-2.57-1.55l-4.13,6.85A1.5,1.5,0,0,0,202.16,90.77Z"/><path class="cls-1" d="M153.06,172.09a1.46,1.46,0,0,0,.77.22,1.51,1.51,0,0,0,1.29-.72l4.13-6.85a1.5,1.5,0,1,0-2.56-1.55L152.55,170A1.5,1.5,0,0,0,153.06,172.09Z"/><path class="cls-1" d="M123.6,220.89a1.46,1.46,0,0,0,.77.22,1.5,1.5,0,0,0,1.29-.73l4.13-6.85a1.5,1.5,0,1,0-2.56-1.55l-4.14,6.85A1.5,1.5,0,0,0,123.6,220.89Z"/><path class="cls-1" d="M143.24,188.36a1.46,1.46,0,0,0,.77.22,1.5,1.5,0,0,0,1.29-.73l4.13-6.85a1.5,1.5,0,1,0-2.56-1.55l-4.14,6.85A1.5,1.5,0,0,0,143.24,188.36Z"/><path class="cls-1" d="M162.88,155.83a1.44,1.44,0,0,0,.77.21,1.49,1.49,0,0,0,1.29-.72l4.13-6.85a1.5,1.5,0,1,0-2.56-1.55l-4.14,6.85A1.5,1.5,0,0,0,162.88,155.83Z"/><path class="cls-1" d="M133.42,204.63a1.54,1.54,0,0,0,.77.21,1.51,1.51,0,0,0,1.29-.72l4.13-6.85a1.5,1.5,0,1,0-2.56-1.55l-4.14,6.85A1.5,1.5,0,0,0,133.42,204.63Z"/><path class="cls-1" d="M182.52,123.3a1.54,1.54,0,0,0,.77.21,1.51,1.51,0,0,0,1.29-.72l4.13-6.85a1.5,1.5,0,1,0-2.57-1.55L182,121.24A1.5,1.5,0,0,0,182.52,123.3Z"/><path class="cls-1" d="M113.78,237.16a1.54,1.54,0,0,0,.77.21,1.49,1.49,0,0,0,1.29-.72L120,229.8a1.5,1.5,0,1,0-2.57-1.55l-4.14,6.85A1.5,1.5,0,0,0,113.78,237.16Z"/><path class="cls-1" d="M303,74.64a1.51,1.51,0,0,0,1.28.72,1.55,1.55,0,0,0,.78-.21,1.5,1.5,0,0,0,.51-2.06l-4.14-6.85a1.5,1.5,0,0,0-2.57,1.55Z"/><path class="cls-1" d="M322.64,107.17a1.49,1.49,0,0,0,1.28.72,1.55,1.55,0,0,0,.78-.21,1.5,1.5,0,0,0,.51-2.06l-4.14-6.85a1.5,1.5,0,0,0-2.57,1.55Z"/><path class="cls-1" d="M312.82,90.9a1.5,1.5,0,0,0,1.28.73,1.46,1.46,0,0,0,.78-.22,1.5,1.5,0,0,0,.51-2.06l-4.14-6.85a1.5,1.5,0,0,0-2.57,1.55Z"/><path class="cls-1" d="M332.46,123.43a1.5,1.5,0,0,0,1.28.73,1.46,1.46,0,0,0,.78-.22,1.51,1.51,0,0,0,.51-2.06L330.89,115a1.5,1.5,0,0,0-2.57,1.56Z"/><path class="cls-1" d="M342.28,139.7a1.52,1.52,0,0,0,2.06.51,1.51,1.51,0,0,0,.51-2.06l-4.14-6.85a1.5,1.5,0,1,0-2.57,1.55Z"/><path class="cls-1" d="M352.1,156a1.51,1.51,0,0,0,1.28.72,1.5,1.5,0,0,0,1.29-2.27l-4.14-6.85a1.5,1.5,0,0,0-2.57,1.55Z"/><path class="cls-1" d="M221.8,58.23a1.46,1.46,0,0,0,.77.22,1.52,1.52,0,0,0,1.29-.72L228,50.88a1.5,1.5,0,1,0-2.57-1.55l-4.13,6.84A1.5,1.5,0,0,0,221.8,58.23Z"/><path class="cls-1" d="M231.62,42a1.54,1.54,0,0,0,.77.21,1.5,1.5,0,0,0,1.29-.72l4.13-6.85a1.5,1.5,0,0,0-2.57-1.55l-4.13,6.85A1.5,1.5,0,0,0,231.62,42Z"/><path class="cls-1" d="M255.14,12.37a12.13,12.13,0,0,1,7,.19,1.34,1.34,0,0,0,.48.08,1.5,1.5,0,0,0,.47-2.92,15.25,15.25,0,0,0-8.75-.25,1.5,1.5,0,0,0,.79,2.9Z"/><path class="cls-1" d="M293.18,58.37a1.5,1.5,0,0,0,1.29.73,1.46,1.46,0,0,0,.77-.22,1.5,1.5,0,0,0,.51-2.06L291.61,50a1.5,1.5,0,1,0-2.56,1.55Z"/><path class="cls-1" d="M283.36,42.11a1.51,1.51,0,0,0,1.29.72,1.46,1.46,0,0,0,.77-.22,1.5,1.5,0,0,0,.51-2.06l-4.14-6.84a1.5,1.5,0,1,0-2.56,1.55Z"/><path class="cls-1" d="M273.54,25.84a1.49,1.49,0,0,0,1.29.72,1.44,1.44,0,0,0,.77-.21,1.5,1.5,0,0,0,.51-2.06L272,17.44A1.5,1.5,0,1,0,269.41,19Z"/><path class="cls-1" d="M241.44,25.7a1.46,1.46,0,0,0,.77.22,1.51,1.51,0,0,0,1.29-.73l4.13-6.84a1.5,1.5,0,0,0-2.57-1.56l-4.13,6.85A1.5,1.5,0,0,0,241.44,25.7Z"/><path class="cls-1" d="M439.9,318.19a1.51,1.51,0,0,0-1.85,1.05,30.36,30.36,0,0,1-2.92,7,1.51,1.51,0,0,0,1.3,2.24,1.52,1.52,0,0,0,1.31-.76A33.6,33.6,0,0,0,441,320,1.49,1.49,0,0,0,439.9,318.19Z"/><path class="cls-1" d="M439,308.86a1.51,1.51,0,0,0,1.5,1.38h.12a1.49,1.49,0,0,0,1.37-1.61,42.26,42.26,0,0,0-1.51-8.15,1.5,1.5,0,0,0-2.89.83A37.77,37.77,0,0,1,439,308.86Z"/><path class="cls-1" d="M430.65,286.09c1.09,1.79,2.07,3.57,2.94,5.28a1.5,1.5,0,1,0,2.68-1.36c-.9-1.78-1.93-3.62-3-5.47l-4.13-6.85a1.5,1.5,0,0,0-2.57,1.55Z"/><path class="cls-1" d="M364.74,374.73l-6.89,4.07a1.5,1.5,0,0,0,.77,2.79,1.5,1.5,0,0,0,.76-.21l6.89-4.07a1.5,1.5,0,1,0-1.53-2.58Z"/><path class="cls-1" d="M428.68,334.63a58.9,58.9,0,0,1-5.86,5.13,1.5,1.5,0,0,0,.92,2.69,1.47,1.47,0,0,0,.91-.31,61.43,61.43,0,0,0,6.16-5.4,1.5,1.5,0,0,0-2.13-2.11Z"/><path class="cls-1" d="M420.84,269.83a1.5,1.5,0,0,0,1.28.72,1.46,1.46,0,0,0,.77-.22,1.49,1.49,0,0,0,.51-2.05l-4.13-6.85A1.5,1.5,0,0,0,416.7,263Z"/><path class="cls-1" d="M390,361.53a1.5,1.5,0,0,0,1.3.73,1.41,1.41,0,0,0,.76-.21L399,358a1.5,1.5,0,0,0-1.53-2.59l-6.89,4.07A1.51,1.51,0,0,0,390,361.53Z"/><path class="cls-1" d="M381.56,204.76a1.49,1.49,0,0,0,2.06.51,1.5,1.5,0,0,0,.5-2.06L380,196.36a1.5,1.5,0,1,0-2.57,1.55Z"/><path class="cls-1" d="M371.74,188.5a1.5,1.5,0,0,0,1.28.72,1.58,1.58,0,0,0,.78-.21,1.51,1.51,0,0,0,.51-2.06l-4.14-6.85a1.5,1.5,0,0,0-2.57,1.55Z"/><path class="cls-1" d="M411,253.56a1.48,1.48,0,0,0,1.28.73,1.43,1.43,0,0,0,.77-.22,1.5,1.5,0,0,0,.51-2.06l-4.13-6.85a1.5,1.5,0,0,0-2.57,1.55Z"/><path class="cls-1" d="M401.2,237.29a1.49,1.49,0,0,0,2.06.51,1.5,1.5,0,0,0,.5-2.06l-4.13-6.84a1.5,1.5,0,1,0-2.57,1.55Z"/><path class="cls-1" d="M391.38,221a1.47,1.47,0,0,0,1.28.72,1.58,1.58,0,0,0,.78-.21,1.51,1.51,0,0,0,.51-2.06l-4.14-6.85a1.5,1.5,0,0,0-2.57,1.55Z"/><path class="cls-1" d="M103.18,345.94l-2.52-1.48c-1.48-.87-2.9-1.77-4.23-2.66a1.5,1.5,0,0,0-1.67,2.49c1.38.93,2.85,1.85,4.37,2.75l2.52,1.49a1.5,1.5,0,0,0,1.53-2.59Z"/><path class="cls-1" d="M90,276.54a1.5,1.5,0,0,0-2.06.51l-4.14,6.85a1.49,1.49,0,0,0,.51,2.05,1.46,1.46,0,0,0,.78.22,1.51,1.51,0,0,0,1.28-.72l4.14-6.85A1.51,1.51,0,0,0,90,276.54Z"/><path class="cls-1" d="M77,312.57a1.5,1.5,0,0,0-3,.08,31.41,31.41,0,0,0,1.33,8.26A1.49,1.49,0,0,0,76.75,322a1.72,1.72,0,0,0,.44-.06,1.5,1.5,0,0,0,1-1.87A28.45,28.45,0,0,1,77,312.57Z"/><path class="cls-1" d="M94.92,269.9a1.49,1.49,0,0,0,1.28-.72l4.14-6.85a1.5,1.5,0,1,0-2.57-1.55l-4.14,6.85a1.5,1.5,0,0,0,.51,2.06A1.45,1.45,0,0,0,94.92,269.9Z"/><path class="cls-1" d="M82.9,329.36a1.5,1.5,0,1,0-2.42,1.77A47,47,0,0,0,86,337.32,1.5,1.5,0,0,0,88,335.14,43.06,43.06,0,0,1,82.9,329.36Z"/><path class="cls-1" d="M80.37,292.9a1.51,1.51,0,0,0-2,.74,52.46,52.46,0,0,0-2.88,7.7,1.5,1.5,0,1,0,2.88.82,50.48,50.48,0,0,1,2.72-7.27A1.5,1.5,0,0,0,80.37,292.9Z"/><path class="cls-1" d="M348.38,384.39l-6.88,4.07a1.5,1.5,0,0,0,1.52,2.59l6.89-4.07a1.5,1.5,0,0,0-1.53-2.59Z"/><path class="cls-1" d="M332,394.06l-6.89,4.07a1.5,1.5,0,1,0,1.52,2.58l6.89-4.07a1.5,1.5,0,0,0-1.52-2.58Z"/><path class="cls-1" d="M315.67,403.72l-6.89,4.07a1.5,1.5,0,0,0,.76,2.79,1.41,1.41,0,0,0,.76-.21l6.89-4.07a1.5,1.5,0,1,0-1.52-2.58Z"/><path class="cls-1" d="M283,423.05l-6.89,4.07a1.5,1.5,0,0,0,.76,2.79,1.54,1.54,0,0,0,.77-.21l6.88-4.07a1.5,1.5,0,0,0-1.52-2.58Z"/><path class="cls-1" d="M109.65,244a1.5,1.5,0,0,0-2.06.5l-4.14,6.85a1.5,1.5,0,0,0,.51,2.06,1.46,1.46,0,0,0,.78.22,1.5,1.5,0,0,0,1.28-.73l4.14-6.84A1.51,1.51,0,0,0,109.65,244Z"/><path class="cls-1" d="M299.31,413.39l-6.89,4.06a1.5,1.5,0,0,0,.76,2.8A1.54,1.54,0,0,0,294,420l6.88-4.07a1.5,1.5,0,1,0-1.52-2.58Z"/><path class="cls-1" d="M486.09,58.08C478.5,46.2,465.25,38,447.78,34.29c-19.22-4.05-42.36-2.54-68.78,4.48-1.7.32-28.36,5.52-66.44,24.88L282.13,13.42a27.84,27.84,0,0,0-47.63,0L166.24,126.11c-23.82-14.93-58.82-25.81-106.69-14.76C26.85,118.9,4.84,134.55.68,153.21c-2.49,11.17,1.89,22.13,12,30.08C22.27,190.8,37.33,196,57.43,196c20.94,0,47.35-5.65,78.7-20.18l-65.43,108A49.56,49.56,0,0,0,88,352.24l156.24,92a27.84,27.84,0,0,0,28.25,0l95.08-56L365,392.2a.6.6,0,0,0,0,.71c.84,1,1.68,2.12,2.54,3.22,2,2.53,4,5.15,6.23,7.69,4.37,5.1,10.58,7.12,18.46,6a15.1,15.1,0,0,0,7.3-3.53c.78-.66.44-2.11.05-3.79-.15-.61-.29-1.23-.36-1.74l-.06-.43c0-.25-.07-.51-.1-.77-.15-1.62-.3-3.25-.46-4.88q-.44-4.76-.91-9.51a27.17,27.17,0,0,0-4.06-12.34l17.5-10.31,3.87,2.51a33.74,33.74,0,0,0,8.78,3.73,4.29,4.29,0,0,1,3,2.24,3.46,3.46,0,0,1-.42,3.07,11.53,11.53,0,0,1-1.61,2l-.64.71a8.47,8.47,0,0,0-2.36,7.05,7.84,7.84,0,0,0,4.46,5.37c5.87,3.05,11.89,6.05,17.72,8.94l5.63,2.8a4.25,4.25,0,0,0,1.19.34l1.1.24a.62.62,0,0,0,.55-.14.64.64,0,0,0,.2-.52l-2.56-22.67c-.4-3.52-2.18-6.35-3.9-9.08-.58-.93-1.18-1.88-1.72-2.85C441,360,437.32,354.14,431,350.94l-.1-.05a49.56,49.56,0,0,0,15.09-67.05h0l-68.2-112.58c4.73-.31,9.79-.82,15.07-1.59C417,166.13,450.64,156,474,128,494.09,103.86,498.62,77.71,486.09,58.08ZM239.73,16.58a21.73,21.73,0,0,1,37.17,0L368.61,168c-2,0-3.94.05-5.74,0l-2.52-4.18a1.5,1.5,0,1,0-2.57,1.55l1.55,2.56c-4.79-.13-8.49-.42-10.74-.63a16,16,0,0,0-5.58-4l1.73-11.16a.62.62,0,0,0-.28-.62.61.61,0,0,0-.67,0L335,157.75c-.7-.47-1.42-1-2.16-1.51a29.56,29.56,0,0,0-6.62-3.92c-5.09-1.91-6.92-4.57-6.3-9.18a1,1,0,0,0-.42-.82l-.25-.25a.6.6,0,0,0-.82-.08c-.5.38-1.05.72-1.63,1.09a8.87,8.87,0,0,0-3.44,3c-1,1.95-2.39,2.13-4.14,2.37l-1.21.18a20.56,20.56,0,0,1-11.55-1,53.07,53.07,0,0,0-11.52-2.49L284,145a9.63,9.63,0,0,0-3.71.49c-.68.18-1.39.36-2.18.51a.63.63,0,0,0-.49.49.59.59,0,0,0,.28.63l4,2.49-.26,0a21,21,0,0,0-3,.49c-9,2.37-15.93,8.07-21.87,17.91a4,4,0,0,1-2,1.95c-10.16,2-20.1,13.7-20.45,24.15a.59.59,0,0,0,.24.5.6.6,0,0,0,.55.1l4.51-1.37-.75.71a15.22,15.22,0,0,0-2.32,2.51c-4.07,6-7.79,13.35-4.56,22.16,1.34,3.66.81,6.72-1.63,9.36a16,16,0,0,0-1.46,1.92c-.23-1.58-.47-3.16-.71-4.73-.83-5.47-1.69-11.12-2.36-16.69a11.52,11.52,0,0,1,.71-6.25c2.32-4.59,1.36-8.94.18-13-1.47-5.09-2.24-5.57-7.51-4.7a13.37,13.37,0,0,1-1.34.15c-1.51-3.48-12-26.34-35.27-46.64-1.53-1.33-3.15-2.67-4.83-4l1.19-2a1.5,1.5,0,0,0-2.57-1.56l-1,1.69c-1.28-1-2.6-1.92-4-2.86ZM62.06,192.14c-19.72.79-36.45-3.38-47.1-11.74-9-7-12.87-16.66-10.7-26.4,3.85-17.24,24.82-31.85,56.11-39.08,25.94-6,50.17-6,72,.11a119.84,119.84,0,0,1,32,14.18L139.59,170.1C111.79,183.6,85,191.23,62.06,192.14Zm8.9,128a43.14,43.14,0,0,1,5-33.14L169.45,132.6c1.34.93,2.65,1.9,4,2.89l-1.21,2a1.5,1.5,0,0,0,.51,2.06,1.46,1.46,0,0,0,.77.22,1.5,1.5,0,0,0,1.29-.73l1-1.7c1.42,1.14,2.83,2.3,4.21,3.51,24.13,21,34.49,45.56,34.59,45.81a1.6,1.6,0,0,0,.23.38,14.26,14.26,0,0,1-3.14,2.48h0a2.81,2.81,0,0,0-1.37,2.32c.06.74.1,1.47.14,2.21.19,3.51.39,7.13,3.28,10.3a9.1,9.1,0,0,1,2,6.45c-1.13,9.54-3,16.58-6.18,22.81-2,3.95-3.77,8.29-3.27,13.3a2.68,2.68,0,0,1-1.18,1.91c-3.41,1.22-5.28,3.86-7.05,6.68a63.45,63.45,0,0,1-4,5.73,3.11,3.11,0,0,1-2.64,1.38,3,3,0,0,1-2.29-1.81c-2.37-4.5-1.78-9.54-1.26-14,.06-.24.85-.72,1.23-1,.18-.1.34-.2.49-.3,1.17-.76,2.35-1.49,3.53-2.23,2.26-1.41,4.61-2.87,6.8-4.47,3.33-2.45,4.54-5.06,3.7-8-1.09-3.76-3.69-6.18-7.12-6.62-3.76-.49-7.48-.73-11.42-1l-4.71-.33c-.07-.15-.15-.34-.22-.54-2.85-8.46-4.71-9.75-13.29-9.19a47.77,47.77,0,0,0-12.07,2.17,8.73,8.73,0,0,0-5.79,9.3c.14,1.3.3,2.59.46,3.89l.15,1.26c-.83.48-1.65.94-2.48,1.4a65.1,65.1,0,0,0-6,3.62c-3.93,2.8-5.79,5.63-5.52,8.39s2.63,5.17,7,7.17c.74.33,1.5.61,2.25.88.59.21,1.19.43,1.77.67a15.46,15.46,0,0,0,2.57.76c2.31.54,4.31,1,5,3.88.49,2.17,1.17,4.25,1.89,6.45.32,1,.64,2,1,3a.63.63,0,0,0,.4.41.61.61,0,0,0,.56-.1l1.93-1.5c.07.21.13.41.19.61,1.62,5.86,1.62,5.86-4.1,8.06a73.67,73.67,0,0,1-8.79,2.54l-1.77.44c-5.08,1.27-8.61,3.92-10.21,7.66s-1,8.58,1.69,13.36a188.15,188.15,0,0,1,8.59,17.5,6.53,6.53,0,0,1-.11,5l-1.28,2.29c-2.56,4.62-5.21,9.4-8.66,13.3-4.39,5-9.3,9.62-14.05,14.13-1.48,1.42-3,2.87-4.51,4.33l-4.25-2.51a1.5,1.5,0,1,0-1.53,2.58l3.55,2.1c-.93.91-1.85,1.87-2.88,3L91.05,347A43.08,43.08,0,0,1,71,320.15ZM269.34,439a21.75,21.75,0,0,1-8.83,2.89c0-1.13,0-2.26-.07-3.39a15.07,15.07,0,0,0,5.65-2l2-1.19a1.5,1.5,0,0,0-1.53-2.59l-2,1.2a12.6,12.6,0,0,1-4,1.49,3.35,3.35,0,0,1,1.28-1.68A182.54,182.54,0,0,0,306,396a23.15,23.15,0,0,1,16.13-8.25c.7-.07,1.39-.12,2.09-.17a45.37,45.37,0,0,0,7.77-1.06c6.74-1.75,11.57-5.4,15.66-11.83,2.77-4.35,6.94-7.86,11-11.27,1.56-1.31,3.17-2.67,4.65-4,.83.85,1.61,1.7,2.37,2.52a42.56,42.56,0,0,0,6.08,5.82,8.05,8.05,0,0,1,1.95,2.05,1.49,1.49,0,0,0,1,2.16,8.15,8.15,0,0,1-.21,5.2Zm121-71.23a5.88,5.88,0,0,1-.22-1c-.74-6.47-4.1-11.52-6.95-15.19a45.82,45.82,0,0,1-3-4.49c-.34-.56-.68-1.13-1-1.7,2-1.49,3.94-1.48,6.17,0l8.85,5.9c3.71,2.48,7.49,5,11.3,7.52ZM440.71,287a43.45,43.45,0,0,1-15.12,60l-.92.55a104.22,104.22,0,0,1-26.31-21.33c-9.44-10.76-17.65-11.85-28.33-3.74l-2.55,2-.77.61c-.44-.84-.87-1.65-1.3-2.45-1.13-2.14-2.2-4.18-3.31-6.2-3.82-6.95-8.89-8.87-16.43-6.24-1.1.39-2.2.81-3.29,1.24l-.77.3c-.08-.6-.14-1.19-.21-1.77a50.28,50.28,0,0,0-.73-5.07c-2.36-11.05-9-19.57-20.24-26.06-3.6-2.07-4.76-4.08-5-8.61-.26-5.53-1.59-11.08-2.87-16.44-.51-2.12-1-4.32-1.48-6.48-.4-1.93-.85-3.85-1.29-5.77-.85-3.69-1.73-7.51-2.28-11.3A11.4,11.4,0,0,1,311,220c1.82-1.74,3.16-2.76,5.2-1a4.44,4.44,0,0,0,2.69.9c4.82,0,8.76,2.23,12.93,4.53l.39.22a54.76,54.76,0,0,1,14.4,11.41c.83.91,2.86,2,4,1.52a3.47,3.47,0,0,0,2-2,4.1,4.1,0,0,0-.25-3.26c-.32-.66-.64-1.31-1-2a7.52,7.52,0,0,0,1.71,1.25c.6.3,3.69,1.77,5.54.86,4.84-2.36,7.22-4.46,8-7,.67-2.29,0-4.95-2.25-8.63-.2-.33-.43-.65-.65-1s-.27-.39-.39-.58l-13.82-21c2.39-4.6.81-8.79-.72-12.85-.36-.94-.72-1.9-1-2.88l.74.37c.38.18.77.35,1.16.51l.49.21a.6.6,0,0,0,.8-.31,10.6,10.6,0,0,0,0-8.22c2.68.2,6.27.4,10.55.46l.35.58a1.49,1.49,0,0,0,2.06.51,1.52,1.52,0,0,0,.7-1.06h0q2.9,0,6.11-.09Zm30.43-161.33c-22.55,27.08-55.28,36.89-78.76,40.35-5.94.87-11.59,1.39-16.79,1.68L314.46,66.79c38.5-19.53,65-24.37,65.26-24.42l.16,0C405.4,35.54,428.62,34,447,37.88,463.51,41.35,476,49,483,60.05,494.63,78.27,490.2,102.8,471.14,125.68Z"/><path class="cls-1" d="M432.71,381.92a14.25,14.25,0,0,0-18.09-2.65L263.86,468.74a10.84,10.84,0,0,1-11.08,0L102,379.27a14.52,14.52,0,0,0-19.25,20.9L246.48,630.44a14.53,14.53,0,0,0,23.67,0L433.86,400.17A14.24,14.24,0,0,0,432.71,381.92ZM211.42,512.3l-3.16,3.09a.79.79,0,0,0-.23.7l.75,4.36a.8.8,0,0,1-1.16.84l-3.91-2.06a.83.83,0,0,0-.75,0l-3.91,2.06a.8.8,0,0,1-1.16-.84l.75-4.36a.79.79,0,0,0-.23-.7l-3.16-3.09a.79.79,0,0,1,.44-1.36l4.37-.64a.77.77,0,0,0,.6-.43l2-4a.8.8,0,0,1,1.43,0l2,4a.77.77,0,0,0,.6.43l4.37.64A.79.79,0,0,1,211.42,512.3Zm30.28-14.95a1.57,1.57,0,0,1-1.63,1.63h-4.9a1.5,1.5,0,0,0-1.17.49,1.69,1.69,0,0,0-.46,1.21v16.64a1.67,1.67,0,0,0,1.7,1.7h3.26a1.29,1.29,0,0,1,1,.42,1.45,1.45,0,0,1,.39,1v2.81a1.33,1.33,0,0,1-1.37,1.37h-1.37l-1.89.07a1.67,1.67,0,0,0-1.7,1.69v6.4a3,3,0,0,0,.2,1.47c.13.15.61.23,1.43.23h5a1.29,1.29,0,0,1,1,.42,1.44,1.44,0,0,1,.39,1v2.61a1.92,1.92,0,0,1-.26,1,1.21,1.21,0,0,1-1.11.43h-9.66a2.87,2.87,0,0,1-1.66-.46,2.12,2.12,0,0,1-.69-1.89v-41.9a2.36,2.36,0,0,1,.69-1.7,2.2,2.2,0,0,1,1.66-.72h9.53a1.59,1.59,0,0,1,1.17.46,1.57,1.57,0,0,1,.46,1.17Zm25.49,33.51a14.12,14.12,0,0,1-1.05,4.34,9.87,9.87,0,0,1-2.71,3.76,7.58,7.58,0,0,1-5.15,1.6,9.43,9.43,0,0,1-4.11-1,8,8,0,0,1-2.84-2.52,8.3,8.3,0,0,1-1.28-5V503.81a15.21,15.21,0,0,1,.92-5.42,12.09,12.09,0,0,1,1-1.95,7.56,7.56,0,0,1,1.53-1.77,7.14,7.14,0,0,1,2.16-1.24,8.55,8.55,0,0,1,2.93-.45,9.19,9.19,0,0,1,3.76.68,6.53,6.53,0,0,1,2.44,1.8,8.14,8.14,0,0,1,1.41,2.51,15.12,15.12,0,0,1,.68,2.77,18.94,18.94,0,0,1,.2,2.65v2.05a.84.84,0,0,1-.29.65,1,1,0,0,1-.69.27H263.3a.93.93,0,0,1-1-1.05c0-.56,0-1.26-.07-2.09a12.3,12.3,0,0,0-.35-2.38,5.64,5.64,0,0,0-.92-2,2.05,2.05,0,0,0-1.73-.81,3.4,3.4,0,0,0-2,.45,4.25,4.25,0,0,0-1.34,1.6,7.28,7.28,0,0,0-.62,3.36v26.11a9.59,9.59,0,0,0,.49,3.49,4.26,4.26,0,0,0,1.14,1.73,2.7,2.7,0,0,0,1.7.72,2.8,2.8,0,0,0,2.19-.91,6.35,6.35,0,0,0,1.24-2.19,12.26,12.26,0,0,0,.55-2.64c.09-.92.13-1.68.13-2.29a.93.93,0,0,1,1.05-1h2.54a1,1,0,0,1,.75.29,1,1,0,0,1,.3.69A29.12,29.12,0,0,1,267.19,530.86Zm27.18,8c0,.74-.23,1.13-.68,1.17a16,16,0,0,1-1.67.07h-1a5.82,5.82,0,0,1-1.43-.16c-.39-.11-.59-.45-.59-1V527.5a2.57,2.57,0,0,0-.78-2.12,3.31,3.31,0,0,0-2.09-.62h-1.83a2.84,2.84,0,0,0-1.93.72,2.56,2.56,0,0,0-.81,2v5.35c0,1,0,1.88,0,2.62s0,1.37,0,1.89v1.56c0,.53-.17.85-.52,1l-.72,0c-.39,0-.81,0-1.27,0h-2.06a.86.86,0,0,1-.52-.3,1.54,1.54,0,0,1-.19-.94V495c0-.91.23-1.41.68-1.5a8.84,8.84,0,0,1,1.67-.13h1.17a4.45,4.45,0,0,1,1.27.16.8.8,0,0,1,.56.88v22a2.73,2.73,0,0,0,.75,1.92,2.55,2.55,0,0,0,2,.82h2a2.8,2.8,0,0,0,2.74-2.74V494.48a.86.86,0,0,1,.52-.92,3.78,3.78,0,0,1,1.31-.19H292a8.91,8.91,0,0,1,1.67.13c.45.09.68.59.68,1.5Zm29.75-26.56L321,515.39a.79.79,0,0,0-.23.7l.75,4.36a.8.8,0,0,1-1.16.84l-3.91-2.06a.83.83,0,0,0-.75,0l-3.9,2.06a.8.8,0,0,1-1.17-.84l.75-4.36a.76.76,0,0,0-.23-.7l-3.16-3.09a.8.8,0,0,1,.44-1.36l4.37-.64a.81.81,0,0,0,.61-.43l1.95-4a.8.8,0,0,1,1.43,0l2,4a.79.79,0,0,0,.6.43l4.37.64A.8.8,0,0,1,324.12,512.3Z"/></g></g></svg>