<svg xmlns="http://www.w3.org/2000/svg" viewBox="0 0 1480.39 1506.17"><defs><style>.cls-1,.cls-4,.cls-5{fill:none;}.cls-1,.cls-2,.cls-3,.cls-4,.cls-5,.cls-6,.cls-7{stroke:#232323;}.cls-1,.cls-3,.cls-5,.cls-6,.cls-7{stroke-linecap:round;stroke-linejoin:round;}.cls-1{stroke-width:6.98px;}.cls-2,.cls-3,.cls-7{fill:#232323;}.cls-2,.cls-4{stroke-miterlimit:10;}.cls-2,.cls-3,.cls-4,.cls-5,.cls-6{stroke-width:7.36px;}.cls-6{fill:#fff;}.cls-7{stroke-width:9.93px;}</style></defs><title>tv-02-large</title><g id="Layer_2" data-name="Layer 2"><g id="Layer_1-2" data-name="Layer 1"><path class="cls-1" d="M1401.65,288.56s-110.34-4.9-161.84-4.9-385-7.36-421.76-7.36S565.48,271.4,514,271.4H89.32s-41.69-4.91-56.4,34.33S18.2,362.13,20.66,421,13.3,636.76,13.3,641.67,3.49,921.21,3.49,962.9s7.36,225.59,7.36,257.47-12.26,71.11,0,90.73,83.37,17.16,110.34,22.07,510.5-7.36,557.09-7.36,201.07,4.9,242.76,7.36,107.89,4.9,147.12,4.9h323.68c27,0,78.47,0,83.38-54s-2.46-328.55-2.46-431.57c0-100.54,4.91-174.1,2.46-235.4-1.87-46.62-4.91-174.1-4.91-201.08S1472.76,303.28,1401.65,288.56Z"/><path class="cls-2" d="M28,1340.52s2.45,100.54,4.91,125.06,14.71,51.5,39.23,24.52c0,0,19.62-36.78,27-88.27s16.3-69.27,16.3-69.27-73.38-6.21-81.62-6.48S28,1340.52,28,1340.52Z"/><path class="cls-2" d="M1351.07,1340.33s6.52,36.08,8.9,46.78c4.9,22.07,7.35,34.33,12.26,51.5,9.52,33.34,22.07,66.2,41.68,63.75s18.48-57.34,23.95-167.21C1437.86,1335.15,1403.47,1337.68,1351.07,1340.33Z"/><path class="cls-3" d="M1404.11,1124.74s7.35-27-12.27-49-51.49-27-71.11-17.16S1286.4,1090.41,1284,1110s0,34.33,19.62,51.5,53.94,14.71,68.66,4.9C1382.43,1159.62,1396.75,1151.71,1404.11,1124.74Z"/><path class="cls-4" d="M1313.38,1021.75s4.9,4.9,4.9,19.61"/><line class="cls-4" x1="1355.06" y1="1019.29" x2="1355.06" y2="1038.91"/><path class="cls-5" d="M1384.49,1048.72s9.81-12.26,12.26-14.71"/><path class="cls-5" d="M1411.46,1075.69s12.26-4.9,14.71-9.8"/><path class="cls-5" d="M1418.82,1112.48s14.71-2.46,19.61,2.45"/><path class="cls-5" d="M1418.82,1141.9s12.26,4.91,14.71,7.36"/><path class="cls-6" d="M1340.35,1083.05s-27-31.88-41.69-31.88c-7.35,0-19.61,2.45-17.16,14.72s31.88,29.42,41.69,39.23c6.25,6.25,55.74,52.39,58.85,54,9.8,4.9,21.32,7.14,24.52-2.46,4.9-14.71-12.26-24.52-24.52-34.33S1352.61,1095.31,1340.35,1083.05Z"/><path class="cls-3" d="M1280.15,920.18s-6-27.31,14.7-48.37,52.79-24.35,71.89-13.57,32.68,33.55,34.15,53.27-1.72,34.29-22.17,50.45-54.62,12-68.82,1.45C1300.05,956.11,1286.14,947.49,1280.15,920.18Z"/><path class="cls-5" d="M1391.84,837.84s-4.9,4.9-9.8,14.71"/><line class="cls-5" x1="1345.25" y1="820.67" x2="1345.25" y2="837.84"/><path class="cls-5" d="M1308.47,845.19s-7.48-12.14-9.81-14.71"/><path class="cls-5" d="M1281.5,867.26s-10.06-4.78-12.26-9.81"/><path class="cls-5" d="M1271,892.48s-8.27-2.86-16.44-.7"/><path class="cls-5" d="M1269.5,931.68s-12.49,4.28-15.06,6.61"/><path class="cls-6" d="M1345.25,894.24s27-22.07,39.24-27c7.2-2.88,14.71,0,14.71,7.36,0,12.5-24,25-34.33,34.33-6.56,5.93-58.42,47.12-61.3,49-7.36,4.91-20,11.5-24.52,2.45-4.91-9.8,10.39-20.81,27-34.33C1318.19,916.19,1332.39,905.87,1345.25,894.24Z"/><path class="cls-3" d="M1355.06,629.41s34.33,0,52.86,1.8c7.71.76,11.55,9.12,7,14.89-7.74,9.82-46.63,4.76-60.47,5.7-8.82.59-75,.81-78.51.54-8.81-.71-22.82-3.36-20.77-13.27,2.23-10.73,21-9.9,42.44-10.24C1313.3,628.57,1333,629.41,1355.06,629.41Z"/><path class="cls-3" d="M1352.61,585.27s34.33,0,52.85,1.81c7.72.75,11.56,9.11,7,14.88-7.74,9.82-41.11,9.35-55,10.28-8.82.6-80.57-3.77-84-4-8.81-.71-22.82-3.36-20.77-13.26,2.22-10.74,21-9.91,42.44-10.25C1310.85,584.44,1330.54,585.27,1352.61,585.27Z"/><path class="cls-3" d="M1352.61,543.58s34.33,0,52.85,1.81c7.72.75,11.56,9.11,7,14.89-7.74,9.81-46.63,4.76-60.47,5.69-8.83.6-75,.82-78.51.54-8.81-.7-22.82-3.36-20.77-13.26,2.22-10.74,21-9.91,42.44-10.25C1310.85,542.75,1330.54,543.58,1352.61,543.58Z"/><path class="cls-3" d="M1355.06,489.64s34.33,0,52.86,1.8c7.71.76,11.55,9.11,7,14.89-7.74,9.82-46,4.44-59.85,5.38-8.82.59-79.91,2.72-83.37,2.45-8.81-.71-26.57-4.81-24.52-14.71,2.22-10.74,29-10.05,50.43-10.4C1313.3,488.8,1333,489.64,1355.06,489.64Z"/><path class="cls-3" d="M1350.16,445.5s34.33-2.45,52.85,1.81c7.56,1.73,11.55,9.11,7,14.88-7.74,9.82-46,9.35-59.85,10.28-8.82.6-70.45-3.31-80.92-4.9-8.74-1.33-21-2.5-19-12.4,2.22-10.74,17.2-11.78,38.6-12.12C1304.56,442.8,1328.09,445.5,1350.16,445.5Z"/><path class="cls-3" d="M820.9,276.14s-1.93-51.26-60.78-63.55S662,215,647.32,222.34s-29.7,25.38-30.82,49.46Z"/><path class="cls-1" d="M788.8,231.79s49.78-53.57,66.94-75.64S917,77.68,919.5,77.68c0,0,17.16,7.36,22.07-7.36s-4.91-14.71-9.81-14.71-19.62,9.81-12.26,22.07"/><path class="cls-1" d="M668,216c-21-83-51.24-179.48-51.24-179.48s12.26-4.9,9.81-19.62c-2.85-17.1-22.07-14.71-27-9.8s-12.82,14-4.9,24.52C602,41.42,611.84,39,611.84,39"/><path class="cls-1" d="M1100,425.88S938.2,421,896.52,421s-225.6-2.45-264.83,0-385.44,0-429.58,4.9-78.46,9.81-83.37,46.59,7.36,112.8,2.45,144.68-4.9,107.89-4.9,130-4.91,85.82-2.45,117.7-2.46,66.21-2.46,100.54,2.46,105.44,0,127.51-9.8,80.92,51.5,85.82,321.68,4.91,385.44,7.36S720,1188.49,742,1186s142.23,2.45,181.46,2.45,103-2.45,142.22,0,44.14,2.45,71.11-2.45,58.85,9.81,66.21-54,7.36-132.41,4.91-181.45-4.91-215.79-2.46-252.57,4.91-181.46,2.46-201.08-19.62-71.11-58.86-71.11Z"/><path class="cls-3" d="M1028.93,450.4s-85.82,0-122.61-2.45S769,448,717.51,448s-198.62,2.45-225.59,2.45-302.07-4.9-316.78,4.91-34.33,34.33-34.33,53.94S135.91,627,135.91,627V1024.2c0,14.71-9.81,110.34,22.07,120.15S484.56,1161.52,528.7,1164s210.88,0,240.31,2.45,223.14-2.45,242.76-2.45,149.58,14.71,156.93-34.33,17.17-299.16,14.71-389.89,34.33-279.54-41.68-284.44S1028.93,450.4,1028.93,450.4Z"/><ellipse class="cls-3" cx="930.53" cy="69.1" rx="13.49" ry="11.03" transform="translate(141.11 566.58) rotate(-36.47)"/><ellipse class="cls-7" cx="607.51" cy="21.98" rx="15.79" ry="17.18" transform="translate(105.88 365.37) rotate(-36.47)"/></g></g></svg>