<svg xmlns="http://www.w3.org/2000/svg" viewBox="0 0 609.24 683.63"><defs><style>.cls-1,.cls-4,.cls-5{fill:none;}.cls-1,.cls-2,.cls-3,.cls-4,.cls-5,.cls-6,.cls-7{stroke:#232323;}.cls-1,.cls-3,.cls-5,.cls-6,.cls-7{stroke-linecap:round;stroke-linejoin:round;}.cls-1{stroke-width:2.87px;}.cls-2,.cls-3,.cls-7{fill:#232323;}.cls-2,.cls-4{stroke-miterlimit:10;}.cls-2,.cls-3,.cls-4,.cls-5,.cls-6{stroke-width:3.03px;}.cls-6{fill:#fff;}.cls-7{stroke-width:4.09px;}</style></defs><title>tv-01</title><g id="Layer_2" data-name="Layer 2"><g id="Layer_1-2" data-name="Layer 1"><path class="cls-1" d="M576.83,182.54s-45.41-2-66.6-2-158.43-3-173.57-3-103.94-2-125.14-2H36.76s-17.16-2-23.21,14.13S7.49,212.82,8.5,237s-3,88.8-3,90.82-4,115-4,132.2,3,92.84,3,106-5,29.26,0,37.33,34.32,7.07,45.42,9.09,210.08-3,229.26-3,82.75,2,99.9,3,44.4,2,60.55,2H572.8c11.1,0,32.29,0,34.31-22.21s-1-135.21-1-177.6c0-41.38,2-71.65,1-96.88-.77-19.19-2-71.65-2-82.75S606.1,188.6,576.83,182.54Z"/><path class="cls-2" d="M11.53,615.46s1,41.38,2,51.47S19.6,688.12,29.69,677a121.11,121.11,0,0,0,11.1-36.33c3-21.19,6.71-28.5,6.71-28.5s-30.2-2.56-33.59-2.67S11.53,615.46,11.53,615.46Z"/><path class="cls-2" d="M556,615.38s2.69,14.85,3.67,19.26c2,9.08,3,14.13,5,21.19,3.92,13.72,9.09,27.25,17.16,26.24s7.6-23.6,9.86-68.82C591.74,613.25,577.58,614.3,556,615.38Z"/><path class="cls-3" d="M577.84,526.66s3-11.1-5-20.18-21.19-11.1-29.27-7.07-14.13,13.12-15.14,21.2,0,14.12,8.08,21.19,22.2,6.05,28.25,2C568.92,541,574.82,537.76,577.84,526.66Z"/><path class="cls-4" d="M540.5,484.28s2,2,2,8.07"/><line class="cls-4" x1="557.66" y1="483.27" x2="557.66" y2="491.34"/><path class="cls-5" d="M569.77,495.38s4-5.05,5.05-6.06"/><path class="cls-5" d="M580.87,506.48s5-2,6-4"/><path class="cls-5" d="M583.9,521.61s6.05-1,8.07,1"/><path class="cls-5" d="M583.9,533.72s5,2,6.05,3"/><path class="cls-6" d="M551.61,509.5s-11.11-13.11-17.16-13.11c-3,0-8.07,1-7.06,6.05s13.11,12.11,17.15,16.15c2.57,2.57,22.94,21.56,24.22,22.2,4,2,8.78,2.94,10.09-1,2-6.06-5-10.09-10.09-14.13S556.65,514.55,551.61,509.5Z"/><path class="cls-3" d="M526.83,442.48s-2.47-11.24,6-19.91,21.72-10,29.58-5.58,13.46,13.81,14.06,21.92-.71,14.11-9.13,20.76-22.47,4.93-28.32.6C535,457.26,529.3,453.72,526.83,442.48Z"/><path class="cls-5" d="M572.8,408.59a25,25,0,0,0-4,6.06"/><line class="cls-5" x1="553.62" y1="401.53" x2="553.62" y2="408.59"/><path class="cls-5" d="M538.49,411.62s-3.08-5-4-6.06"/><path class="cls-5" d="M527.39,420.7s-4.14-2-5-4"/><path class="cls-5" d="M523.05,431.08a13,13,0,0,0-6.76-.29"/><path class="cls-5" d="M522.45,447.21s-5.14,1.76-6.2,2.72"/><path class="cls-6" d="M553.62,431.8s11.1-9.08,16.15-11.1c3-1.18,6.05,0,6.05,3,0,5.14-9.89,10.3-14.12,14.13-2.7,2.44-24,19.39-25.23,20.18-3,2-8.23,4.73-10.09,1-2-4,4.27-8.57,11.1-14.13C542.49,440.84,548.33,436.59,553.62,431.8Z"/><path class="cls-3" d="M557.66,322.81s14.13,0,21.75.75a3.82,3.82,0,0,1,2.88,6.12c-3.19,4-19.19,2-24.89,2.35-3.63.24-30.88.33-32.3.22-3.63-.29-9.4-1.38-8.55-5.46.91-4.42,8.66-4.07,17.46-4.22C540.47,322.47,548.58,322.81,557.66,322.81Z"/><path class="cls-3" d="M556.65,304.65s14.13,0,21.75.74a3.82,3.82,0,0,1,2.88,6.13c-3.19,4-16.92,3.85-22.61,4.23-3.63.24-33.16-1.55-34.58-1.67-3.63-.29-9.4-1.38-8.55-5.45.91-4.42,8.66-4.08,17.46-4.22C539.46,304.31,547.57,304.65,556.65,304.65Z"/><path class="cls-3" d="M556.65,287.49s14.13,0,21.75.75a3.82,3.82,0,0,1,2.88,6.12c-3.19,4-19.19,2-24.89,2.35-3.63.24-30.88.33-32.3.22-3.63-.29-9.4-1.38-8.55-5.46.91-4.42,8.66-4.07,17.46-4.22C539.46,287.15,547.57,287.49,556.65,287.49Z"/><path class="cls-3" d="M557.66,265.29s14.13,0,21.75.75a3.82,3.82,0,0,1,2.88,6.12c-3.19,4-18.93,1.83-24.63,2.21-3.63.25-32.89,1.13-34.31,1-3.63-.29-10.94-2-10.09-6.05.91-4.42,12-4.14,20.75-4.28C540.47,265,548.58,265.29,557.66,265.29Z"/><path class="cls-3" d="M555.64,247.13s14.13-1,21.75.74c3.11.72,4.76,3.75,2.88,6.13-3.18,4-18.93,3.84-24.63,4.23-3.63.24-29-1.36-33.3-2-3.6-.55-8.66-1-7.81-5.1.91-4.42,7.08-4.85,15.88-5C536.87,246,546.56,247.13,555.64,247.13Z"/><path class="cls-3" d="M337.83,177.43s-.79-21.09-25-26.15-40.37,1-46.42,4a24.28,24.28,0,0,0-12.69,20.36Z"/><path class="cls-1" d="M324.62,159.18s20.49-22.05,27.55-31.13,25.23-32.29,26.24-32.29c0,0,7.06,3,9.08-3s-2-6.06-4-6.06-8.07,4-5,9.09"/><path class="cls-1" d="M278.9,153.59s-12.51-37.65-14.53-44.71-10.09-32.3-15.13-45.42S236.12,15,236.12,15a7.18,7.18,0,0,0,4-8.08c-1.18-7-9.09-6-11.11-4S223.78,8.66,227,13a7.05,7.05,0,0,0,7.06,3"/><path class="cls-1" d="M452.71,239.06s-66.6-2-83.76-2-92.84-1-109,0-158.62,0-176.78,2-32.3,4-34.31,19.17,3,46.42,1,59.54-2,44.4-2,53.48-2,35.32-1,48.44-1,27.25-1,41.38,1,43.39,0,52.47-4,33.3,21.19,35.32,132.38,2,158.62,3,70.64,1,79.72,0,58.53,1,74.68,1,42.39-1,58.53,0,18.17,1,29.27-1,24.22,4,27.24-22.2,3-54.5,2-74.68-2-88.8-1-103.94,2-74.68,1-82.75-8.07-29.26-24.22-29.26Z"/><path class="cls-3" d="M423.44,249.15s-35.32,0-50.45-1-56.51,0-77.71,0-81.74,1-92.84,1-124.31-2-130.36,2S58,265.29,58,273.37s-2,48.43-2,48.43V485.29c0,6-4,45.41,9.08,49.44s134.4,7.07,152.57,8.08,86.79,0,98.9,1,91.83-1,99.9-1,61.56,6.05,64.59-14.13,7.06-123.12,6-160.45,14.13-115-17.16-117.07S423.44,249.15,423.44,249.15Z"/><ellipse class="cls-3" cx="382.95" cy="92.23" rx="5.55" ry="4.54" transform="translate(20.16 245.66) rotate(-36.47)"/><ellipse class="cls-7" cx="232.32" cy="9.04" rx="6.5" ry="7.07" transform="translate(40.11 139.85) rotate(-36.47)"/></g></g></svg>