<?xml version="1.0" encoding="UTF-8"?>
<svg width="599px" height="441px" viewBox="0 0 599 441" version="1.1" xmlns="http://www.w3.org/2000/svg" xmlns:xlink="http://www.w3.org/1999/xlink">
    <title>tv-new 3</title>
    <g id="Page-1" stroke="none" stroke-width="1" fill="none" fill-rule="evenodd">
        <g id="tv-new-3" transform="translate(1.000000, 1.000000)">
            <g id="tv-new-2">
                <g id="tv-new">
                    <path d="M575.31,0.44 L21.57,0.44 C15.9659756,0.44 10.5914774,2.66619004 6.62883371,6.62883371 C2.66619004,10.5914774 0.44,15.9659756 0.44,21.57 L0.44,417.31 C0.44,428.979777 9.90022324,438.44 21.57,438.44 L575.31,438.44 C586.979777,438.44 596.44,428.979777 596.44,417.31 L596.44,21.57 C596.44,15.9659756 594.21381,10.5914774 590.251166,6.62883371 C586.288523,2.66619004 580.914024,0.44 575.31,0.44 Z M478.52,193.73 C479.52,231.06 475.52,334 472.52,354.18 C469.52,374.36 416,368.31 407.88,368.31 C399.76,368.31 320.08,370.31 307.98,369.31 C295.88,368.31 227.24,369.31 209.08,368.31 C190.92,367.31 69.63,364.31 56.51,360.23 C43.39,356.15 47.43,316.84 47.43,310.79 L47.43,147.3 C47.43,147.3 49.43,106.94 49.43,98.87 C49.43,90.8 57.52,80.7 63.58,76.66 C69.64,72.62 182.84,74.66 193.94,74.66 C205.04,74.66 265.59,73.66 286.78,73.66 C307.97,73.66 349.35,72.66 364.49,73.66 C379.63,74.66 414.94,74.66 414.94,74.66 C414.94,74.66 430.08,74.66 461.36,76.66 C492.64,78.66 477.51,156.39 478.52,193.73 Z" id="Shape" stroke="#232323" stroke-width="2.87" fill="#FFFFFF" fill-rule="nonzero" stroke-linecap="round" stroke-linejoin="round"></path>
                    <g id="Group-2" transform="translate(554.000000, 374.000000)" stroke="#232323" stroke-linecap="round" stroke-width="3.03">
                        <path d="M28.6934166,22.5174926 C28.6934166,22.5174926 30.362593,16.2444894 25.911456,11.1130598 C21.4603189,5.98163014 14.1215068,4.84005658 9.62585841,7.11755234 C5.13021003,9.3950481 1.74178198,14.515175 1.17982594,19.0984233 C0.617869888,23.6816716 1.17982594,27.0781355 5.67547432,31.073643 C10.1711227,35.0691504 18.0273795,34.4927123 21.3935519,32.2039138 C23.7303988,30.6328373 27.0131124,28.7904958 28.6934166,22.5174926 Z" id="Path" fill="#232323" fill-rule="nonzero" stroke-linejoin="round"></path>
                        <path d="M9,2 C9,2 10,2.9913259 10,6" id="Path"></path>
                        <line x1="17.5" y1="0" x2="17.5" y2="5" id="Path"></line>
                        <path d="M23,7 C23,7 25.3762376,3.66666667 26,3" id="Path" stroke-linejoin="round"></path>
                        <path d="M28,11 C28,11 30.5,10 31,9" id="Path" stroke-linejoin="round"></path>
                        <path d="M29,18.1 C29,18.1 32.7484511,17.7 34,18.5" id="Path" stroke-linejoin="round"></path>
                        <path d="M30,24 C30,24 33.3057851,24.6666667 34,25" id="Path" stroke-linejoin="round"></path>
                        <path d="M14.0600638,12.3895091 C14.0600638,12.3895091 7.63202941,5 4.16054367,5 C2.4248008,5 -0.508604642,5.56365439 0.0757621236,8.41010907 C0.660128889,11.2565637 7.63202941,15.2359637 9.94635323,17.5131275 C11.4333063,18.9617193 23.2190004,29.6655162 23.959584,30.026255 C26.2739078,31.1535638 29.0395248,31.6833989 29.7974658,29.4626006 C30.9546277,26.046855 26.904561,23.7753278 23.959584,21.498164 C21.0146069,19.2210003 16.9761118,15.2359637 14.0600638,12.3895091 Z" id="Path" fill="#FFFFFF" fill-rule="nonzero" stroke-linejoin="round"></path>
                    </g>
                    <g id="Group" transform="translate(554.000000, 332.000000)" stroke="#232323" stroke-linecap="round" stroke-linejoin="round" stroke-width="3.03">
                        <path d="M5.19392626,22.3599849 C5.19392626,22.3599849 3.76489978,15.781922 8.66524563,10.7079179 C13.5655915,5.63391389 21.2314218,4.8555488 25.7788501,7.44229595 C30.3262785,10.0290431 33.5951042,15.512713 33.9306651,20.2589843 C34.266226,25.0052557 33.5198923,28.5166772 28.6484741,32.4085026 C23.777056,36.3003281 15.6483831,35.2937206 12.2638467,32.7596448 C9.9322772,30.9980817 6.62295273,28.926343 5.19392626,22.3599849 Z" id="Path" fill="#232323" fill-rule="nonzero"></path>
                        <path d="M30,3 C29.18943,4.19773918 28.5156584,5.54528237 28,7" id="Path"></path>
                        <line x1="20.5" y1="0" x2="20.5" y2="4" id="Path"></line>
                        <path d="M13,6 C13,6 11.46,2.69966997 11,2" id="Path"></path>
                        <path d="M7,11 C7,11 4.516,10 4,9" id="Path"></path>
                        <path d="M4,17.4011151 C2.70518629,17.0552865 1.32510654,17.0052586 0,17.2561151" id="Path"></path>
                        <path d="M4,24 C4,24 0.683870968,25.2941176 0,26" id="Path"></path>
                        <path d="M21.0768799,16.5416686 C21.0768799,16.5416686 27.53844,11.3995427 30.4781587,10.2555895 C32.2245263,9.58733969 34,10.2555895 34,11.9545298 C34,14.8653808 28.2428082,17.7875581 25.7804299,19.9565386 C24.2086991,21.3383433 11.8094893,30.9373559 11.0934786,31.3847436 C9.34711099,32.5173704 6.30261018,34.0634061 5.21986228,31.951057 C4.05561722,29.6858033 7.70552547,27.0977509 11.6814223,23.9490482 C14.6036774,21.661142 17.9974517,19.2543099 21.0768799,16.5416686 Z" id="Path" fill="#FFFFFF" fill-rule="nonzero"></path>
                    </g>
                    <g id="Group" transform="translate(573.000000, 305.500000) rotate(83.000000) translate(-573.000000, -305.500000) translate(556.000000, 288.000000)" stroke="#232323" stroke-linecap="round" stroke-linejoin="round" stroke-width="3.03">
                        <path d="M5.19392626,22.3599849 C5.19392626,22.3599849 3.76489978,15.781922 8.66524563,10.7079179 C13.5655915,5.63391389 21.2314218,4.8555488 25.7788501,7.44229595 C30.3262785,10.0290431 33.5951042,15.512713 33.9306651,20.2589843 C34.266226,25.0052557 33.5198923,28.5166772 28.6484741,32.4085026 C23.777056,36.3003281 15.6483831,35.2937206 12.2638467,32.7596448 C9.9322772,30.9980817 6.62295273,28.926343 5.19392626,22.3599849 Z" id="Path" fill="#232323" fill-rule="nonzero"></path>
                        <path d="M30,3 C29.18943,4.19773918 28.5156584,5.54528237 28,7" id="Path"></path>
                        <line x1="20.5" y1="0" x2="20.5" y2="4" id="Path"></line>
                        <path d="M13,6 C13,6 11.46,2.69966997 11,2" id="Path"></path>
                        <path d="M7,11 C7,11 4.516,10 4,9" id="Path"></path>
                        <path d="M4,17.4011151 C2.70518629,17.0552865 1.32510654,17.0052586 0,17.2561151" id="Path"></path>
                        <path d="M4,24 C4,24 0.683870968,25.2941176 0,26" id="Path"></path>
                        <path d="M21.0768799,16.5416686 C21.0768799,16.5416686 27.53844,11.3995427 30.4781587,10.2555895 C32.2245263,9.58733969 34,10.2555895 34,11.9545298 C34,14.8653808 28.2428082,17.7875581 25.7804299,19.9565386 C24.2086991,21.3383433 11.8094893,30.9373559 11.0934786,31.3847436 C9.34711099,32.5173704 6.30261018,34.0634061 5.21986228,31.951057 C4.05561722,29.6858033 7.70552547,27.0977509 11.6814223,23.9490482 C14.6036774,21.661142 17.9974517,19.2543099 21.0768799,16.5416686 Z" id="Path" fill="#FFFFFF" fill-rule="nonzero"></path>
                    </g>
                    <path d="M575.40825,110.31 C575.40825,110.31 580.50036,110.31 583.246424,111.06 C583.757469,111.122136 584.213958,111.96545 584.431768,113.249794 C584.649578,114.534137 584.592789,116.047704 584.284307,117.18 C583.134708,121.18 577.368694,119.18 575.314552,119.53 C574.006388,119.77 564.186147,119.86 563.674413,119.75 C562.366249,119.46 560.28688,118.37 560.5932,114.29 C560.921142,109.87 563.714054,110.22 566.885362,110.07 C569.224201,110 572.136037,110.31 575.40825,110.31 Z" id="Path" stroke="#232323" stroke-width="3.03" fill="#232323" fill-rule="nonzero" stroke-linecap="round" stroke-linejoin="round"></path>
                    <path d="M575.406612,92.15 C575.406612,92.15 580.498161,92.15 583.243922,92.89 C583.756214,92.9495527 584.214118,93.7943861 584.43215,95.0822817 C584.650183,96.3701773 584.5922,97.8876447 584.28169,99.02 C583.132218,103.02 578.184803,102.87 576.134491,103.25 C574.826471,103.49 564.185747,101.7 563.67407,101.58 C562.36605,101.29 560.286911,100.2 560.593196,96.13 C560.921102,91.71 563.713707,92.05 566.884664,91.91 C569.226849,91.81 572.134761,92.15 575.406612,92.15 Z" id="Path" stroke="#232323" stroke-width="3.03" fill="#232323" fill-rule="nonzero" stroke-linecap="round" stroke-linejoin="round"></path>
                    <path d="M575.40825,75 C575.40825,75 580.50036,75 583.246424,75.75 C583.757469,75.8121358 584.213958,76.6554498 584.431768,77.9397936 C584.649578,79.2241374 584.592789,80.7377039 584.284307,81.87 C583.134708,85.87 577.368694,83.87 575.314552,84.22 C574.006388,84.46 564.186147,84.55 563.674413,84.44 C562.366249,84.15 560.28688,83.06 560.5932,78.98 C560.921142,74.56 563.714054,74.91 566.885362,74.76 C569.227804,74.65 572.136037,75 575.40825,75 Z" id="Path" stroke="#232323" stroke-width="3.03" fill="#232323" fill-rule="nonzero" stroke-linecap="round" stroke-linejoin="round"></path>
                    <path d="M575.473625,52.79 C575.473625,52.79 580.529371,52.79 583.255825,53.54 C583.76322,53.6021358 584.216449,54.4454498 584.432704,55.7297936 C584.648959,57.0141374 584.592575,58.5277039 584.286295,59.66 C583.144906,63.66 577.513098,61.49 575.473625,61.87 C574.174803,62.12 563.705508,63 563.197428,62.87 C561.898606,62.58 559.283071,60.87 559.587203,56.87 C559.912803,52.45 563.880831,52.73 567.011601,52.59 C569.333738,52.45 572.22478,52.79 575.473625,52.79 Z" id="Path" stroke="#232323" stroke-width="3.03" fill="#232323" fill-rule="nonzero" stroke-linecap="round" stroke-linejoin="round"></path>
                    <path d="M574.404614,34.63 C574.404614,34.63 579.494205,33.63 582.23891,35.37 C583.359124,36.09 583.95345,39.12 583.276279,41.5 C582.130851,45.5 576.45774,45.34 574.404614,45.73 C573.097097,45.97 563.958886,44.37 562.410036,43.73 C561.113325,43.18 559.290726,42.73 559.596894,38.63 C559.924674,34.21 562.147092,33.78 565.31683,33.63 C567.643706,33.52 571.13402,34.63 574.404614,34.63 Z" id="Path" stroke="#232323" stroke-width="3.03" fill="#232323" fill-rule="nonzero" stroke-linecap="round" stroke-linejoin="round"></path>
                    <path d="M575.473625,149.79 C575.473625,149.79 580.529371,149.79 583.255825,150.54 C583.76322,150.602136 584.216449,151.44545 584.432704,152.729794 C584.648959,154.014137 584.592575,155.527704 584.286295,156.66 C583.144906,160.66 577.513098,158.49 575.473625,158.87 C574.174803,159.12 563.705508,160 563.197428,159.87 C561.898606,159.58 559.283071,157.87 559.587203,153.87 C559.912803,149.45 563.880831,149.73 567.011601,149.59 C569.333738,149.45 572.22478,149.79 575.473625,149.79 Z" id="Path" stroke="#232323" stroke-width="3.03" fill="#232323" fill-rule="nonzero" stroke-linecap="round" stroke-linejoin="round"></path>
                    <path d="M574.404614,131.63 C574.404614,131.63 579.494205,130.63 582.23891,132.37 C583.359124,133.09 583.95345,136.12 583.276279,138.5 C582.130851,142.5 576.45774,142.34 574.404614,142.73 C573.097097,142.97 563.958886,141.37 562.410036,140.73 C561.113325,140.18 559.290726,139.73 559.596894,135.63 C559.924674,131.21 562.147092,130.78 565.31683,130.63 C567.643706,130.52 571.13402,131.63 574.404614,131.63 Z" id="Path" stroke="#232323" stroke-width="3.03" fill="#232323" fill-rule="nonzero" stroke-linecap="round" stroke-linejoin="round"></path>
                    <path d="M444.21,64.56 C444.21,64.56 377.61,62.56 360.45,62.56 C343.29,62.56 267.61,61.56 251.45,62.56 C235.29,63.56 92.83,62.56 74.67,64.56 C56.51,66.56 42.37,68.56 40.36,83.73 C38.35,98.9 43.36,130.15 41.36,143.27 C39.36,156.39 39.36,187.67 39.36,196.75 C39.36,205.83 37.36,232.07 38.36,245.19 C39.36,258.31 37.36,272.44 37.36,286.57 C37.36,300.7 38.36,329.96 37.36,339.04 C36.36,348.12 33.36,372.34 58.55,374.36 C83.74,376.38 190.93,376.36 217.17,377.36 C243.41,378.36 287.81,378.36 296.89,377.36 C305.97,376.36 355.42,378.36 371.57,378.36 C387.72,378.36 413.96,377.36 430.1,378.36 C446.24,379.36 448.27,379.36 459.37,377.36 C470.47,375.36 483.59,381.36 486.61,355.16 C489.63,328.96 489.61,300.66 488.61,280.48 C487.61,260.3 486.61,191.68 487.61,176.54 C488.61,161.4 489.61,101.86 488.61,93.79 C487.61,85.72 480.54,64.53 464.39,64.53 L444.21,64.56 Z" id="Path" stroke="#232323" stroke-width="2.87" stroke-linecap="round" stroke-linejoin="round"></path>
                    <rect id="Rectangle" fill="#000000" x="25" y="28" width="522" height="384" rx="25"></rect>
                </g>
            </g>
        </g>
    </g>
</svg>