<svg xmlns="http://www.w3.org/2000/svg" viewBox="0 0 611.56 441.06"><defs><style>.cls-1,.cls-2{fill:#232323;}.cls-1,.cls-2,.cls-3,.cls-4{stroke:#fff;}.cls-1,.cls-2,.cls-3,.cls-4,.cls-5{stroke-linecap:round;stroke-linejoin:round;}.cls-1{stroke-width:3.06px;}.cls-2,.cls-4{stroke-width:3.03px;}.cls-3,.cls-4{fill:none;}.cls-3{stroke-width:3.03px;}.cls-5{fill:#fff;stroke:#232323;stroke-width:2.89px;}</style></defs><title>tv-new2</title><g id="Layer_2" data-name="Layer 2"><g id="Layer_1-2" data-name="Layer 1"><path class="cls-1" d="M588.45,1.53H23.1A21.36,21.36,0,0,0,1.53,22.66V418.4A21.36,21.36,0,0,0,23.1,439.53H588.45A21.36,21.36,0,0,0,610,418.4V22.66A21.36,21.36,0,0,0,588.45,1.53ZM489.64,194.82c1,37.34-3.09,140.27-6.18,160.45s-57.7,14.13-65.94,14.13-89.64,2-102,1-82.43,0-101-1-142.37-4-155.77-8.07-9.27-43.4-9.27-49.45V148.4S51.57,108,51.57,100,59.81,81.79,66,77.76s121.77-2,133.1-2,73.15-1,94.79-1,63.88-1,79.34,0,51.51,1,51.51,1,15.46,0,47.39,2S488.61,157.48,489.64,194.82Z"/><path class="cls-2" d="M579.94,353.25s3-11.1-5.05-20.18S553.7,322,545.62,326s-14.12,13.11-15.13,21.19,0,14.13,8.07,21.19,22.2,6.05,28.26,2C571,367.61,576.91,364.35,579.94,353.25Z"/><path class="cls-3" d="M542.6,310.87s2,2,2,8.07"/><line class="cls-3" x1="559.75" y1="309.86" x2="559.75" y2="317.93"/><path class="cls-3" d="M571.86,322s4-5.05,5-6.06"/><path class="cls-3" d="M583,333.07s5-2,6.06-4"/><path class="cls-3" d="M586,348.21s6-1,8.07,1"/><path class="cls-3" d="M586,360.32s5,2,6,3"/><path class="cls-2" d="M553.7,336.1S542.6,323,536.54,323c-3,0-8.07,1-7.06,6s13.12,12.11,17.15,16.15c2.58,2.57,23,21.56,24.22,22.2,4,2,8.78,2.94,10.09-1,2-6.05-5-10.09-10.09-14.13S558.74,341.14,553.7,336.1Z"/><path class="cls-2" d="M531.92,269.07s-2.46-11.24,6.05-19.9,21.73-10,29.59-5.59S581,257.39,581.61,265.5s-.71,14.11-9.12,20.76-22.48,4.94-28.33.6C540.11,283.86,534.39,280.31,531.92,269.07Z"/><path class="cls-4" d="M577.89,235.18a25,25,0,0,0-4,6.06"/><line class="cls-4" x1="558.72" y1="228.12" x2="558.72" y2="235.18"/><path class="cls-4" d="M543.58,238.21s-3.08-5-4-6.05"/><path class="cls-4" d="M532.48,247.29s-4.14-2-5.05-4"/><path class="cls-4" d="M528.15,257.67a13.07,13.07,0,0,0-6.77-.29"/><path class="cls-4" d="M527.54,273.8s-5.14,1.77-6.2,2.72"/><path class="cls-2" d="M558.72,258.39s11.1-9.08,16.14-11.1c3-1.18,6.06,0,6.06,3,0,5.15-9.9,10.3-14.13,14.13-2.7,2.44-24,19.39-25.23,20.18-3,2-8.23,4.73-10.09,1-2-4,4.28-8.57,11.1-14.13C547.58,267.43,553.42,263.18,558.72,258.39Z"/><path class="cls-2" d="M562.75,149.41s14.13,0,21.75.74a3.82,3.82,0,0,1,2.88,6.13c-3.18,4-19.19,2-24.88,2.34-3.64.24-30.89.34-32.31.22-3.63-.29-9.39-1.38-8.55-5.46.91-4.41,8.66-4.07,17.46-4.21C545.57,149.06,553.67,149.41,562.75,149.41Z"/><path class="cls-2" d="M561.74,131.24s14.13,0,21.75.75a3.81,3.81,0,0,1,2.88,6.12c-3.18,4-16.91,3.85-22.61,4.23-3.63.25-33.16-1.55-34.58-1.66-3.63-.29-9.39-1.39-8.55-5.46.92-4.42,8.66-4.08,17.47-4.22C544.56,130.9,552.66,131.24,561.74,131.24Z"/><path class="cls-2" d="M561.74,114.09s14.13,0,21.75.74a3.82,3.82,0,0,1,2.88,6.13c-3.18,4-19.19,2-24.88,2.34-3.63.24-30.89.34-32.31.22-3.63-.29-9.39-1.38-8.55-5.46.92-4.41,8.66-4.07,17.47-4.21C544.56,113.74,552.66,114.09,561.74,114.09Z"/><path class="cls-2" d="M562.75,91.89s14.13,0,21.75.74a3.82,3.82,0,0,1,2.88,6.13c-3.18,4-18.93,1.82-24.63,2.21-3.63.24-32.89,1.12-34.31,1-3.63-.29-10.93-2-10.09-6.06.92-4.42,11.95-4.13,20.75-4.27C545.57,91.54,553.67,91.89,562.75,91.89Z"/><path class="cls-2" d="M560.73,73.72s14.13-1,21.76.74c3.11.72,4.75,3.75,2.87,6.13-3.18,4-18.93,3.85-24.63,4.23-3.63.25-29-1.36-33.3-2-3.59-.54-8.65-1-7.81-5.1.92-4.42,7.08-4.85,15.89-5C542,72.61,551.65,73.72,560.73,73.72Z"/><path class="cls-5" d="M500.2,280.87c-1-20.13-2.05-88.57-1-103.67s2.05-74.47,1-82.52S492,65.49,475.67,65.49H455.23s-67.45-2-84.82-2-94-1-110.37,0-160.63,0-179,2-32.7,4-34.74,19.12,3.06,46.3,1,59.38-2,44.29-2,53.34-2,35.23-1,48.31-1,27.18-1,41.27,1,43.27,0,52.33-4.09,33.21,21.46,35.23,134.07,2,160.64,3,71.53,1,80.73,0,59.27,1,75.62,1,42.92-1,59.27,0,18.4,1,29.64-1,24.53,4,27.59-22.15S501.22,301,500.2,280.87ZM489.48,194.6c1,37.24-3.07,139.9-6.13,160s-57.23,14.09-65.41,14.09-88.91,2-101.17,1-81.75,0-100.15-1-141.22-4-154.5-8.05-9.2-43.28-9.2-49.32v-163s2-40.26,2-48.31,8.17-18.12,14.3-22.14,120.78-2,132-2,72.56-1,94-1,63.36-1,78.69,0,51.1,1,51.1,1,15.32,0,47,2S488.46,157.37,489.48,194.6Z"/></g></g></svg>