<svg xmlns="http://www.w3.org/2000/svg" viewBox="0 0 247.07 277.76"><defs><style>.cls-1{fill:#f2f2f2;}</style></defs><title>yarn-ball2</title><g id="Layer_2" data-name="Layer 2"><g id="Layer_1-2" data-name="Layer 1"><path class="cls-1" d="M165.51,257.05c7.65,3.11,16.7,4.87,25.2,1.68,12.15-4.58,20-18,23.33-40q1.77-2.1,3.45-4.26c.44.14.87.3,1.32.45a3.95,3.95,0,0,0,3.44-7c.86-1.28,1.68-2.59,2.49-3.9a3.8,3.8,0,0,0,.75-1.2,119.81,119.81,0,0,0,11.31-25c4.44-.4,5.47-1.34,6.3-2.1a4,4,0,0,0-3.79-6.71c.1-.43.18-.86.27-1.29,1.24,0,2.47,0,3.71-.1a4,4,0,1,0-.36-7.92c-.61,0-1.2,0-1.81,0a121.33,121.33,0,0,0,1.47-14.34c0-1.14.08-2.28.1-3.42a3.91,3.91,0,0,0,2.38-1.52,4,4,0,0,0-.85-5.53,8.76,8.76,0,0,0-1.68-.89,121.41,121.41,0,0,0-2.61-19.66c4-12,3.84-21.28-.55-27.56-3.42-4.9-8.65-7-13.21-7.8A122.87,122.87,0,0,0,191,40.63c-7.17-8.6-15.79-15-24.85-15.55a22.22,22.22,0,0,0-3.47.1c-5.38-4.53-11.26-7.54-17.34-7.89h-.09C131.13,3.58,118.8-2,108.5.64,95.8,3.93,91.1,18.37,90,22.4a118.7,118.7,0,0,0-21.6,8c-22.75.82-52.2,9-60.57,27.65Q3.57,67.59,7,78.77a48.85,48.85,0,0,0,4.27,9.59,121.7,121.7,0,0,0,1.28,105.35c.34,5.21.82,8.63.9,9.15a4.15,4.15,0,0,0,.14.61A4,4,0,0,0,18,206.2a3.71,3.71,0,0,0,1.41-.5,122.88,122.88,0,0,0,36.89,36.85l.32,1.11A21.08,21.08,0,0,0,58.39,248a3.94,3.94,0,0,0,6.88-.2,120.73,120.73,0,0,0,17.65,7.58c3.8,5.07,19.47,24.21,38.14,22.24a27.93,27.93,0,0,0,14.77-6.45c4.76,3.4,9.91,5.49,14.92,4.51C157.51,274.35,162.37,268.22,165.51,257.05ZM11.73,120.24c.4-5.52,3.65-10.6,7.59-14.82-.54,2.12-1,4.26-1.42,6.42a17.6,17.6,0,0,0-3.35,3.1,3.28,3.28,0,0,0,.58,4.51,3.18,3.18,0,0,0,1.56.67q-.4,4-.48,8c-.56.81-1.09,1.66-1.58,2.53A16.72,16.72,0,0,1,11.73,120.24ZM20.34,88c1-2,2.05-3.91,3.17-5.81.08,2.73.23,5.88.49,9.39-.13.3-.26.61-.38.92C22.43,91,21.32,89.45,20.34,88ZM88.79,31c0,.31-.06.62-.09.95-.63-.12-1.26-.25-1.88-.35C87.48,31.37,88.13,31.17,88.79,31ZM214.55,205.13l-2.2-.82c.5-.56,1-1.13,1.5-1.71l2,.74C215.4,203.94,215,204.53,214.55,205.13Zm-18.5,20.71a113.41,113.41,0,0,1-18.84,13.39,30.3,30.3,0,0,0,.6-5.53q2.56-1.78,5-3.74a26.07,26.07,0,0,0,13-4.21ZM34.21,93.86c-.62.86-1.18,1.75-1.77,2.62,0-.49-.09-1-.14-1.46C32.93,94.63,33.56,94.24,34.21,93.86ZM41,59.63c1.21-1.21,2.45-2.42,3.73-3.59l1.42-1.27c0,1.07,0,2.39.11,3.95A2.73,2.73,0,0,0,46,59c-2.28,1-4,1.92-5.15,2.51C40.88,60.72,40.92,60.1,41,59.63ZM98.73,28.51c0,.36,0,.74,0,1.14L96.88,30c0-.39.09-.77.13-1.13ZM210,79.73c.24.15.49.27.72.44l-.61.16C210.1,80.13,210.06,79.93,210,79.73Zm4.65,6.17.11,0,.13.2c.08.28.2.54.27.83C215,86.56,214.86,86.22,214.68,85.9ZM223,125.17c2,1.7,4,3.52,6.16,5.48-2.3-.45-4.79-.89-7.41-1.33C222.17,127.9,222.6,126.51,223,125.17Zm7.55,16.69a92.8,92.8,0,0,1-.86,10c-4.21-4.51-8.18-8.52-11.91-12.11,0-.13,0-.25,0-.38.13-.28.24-.56.37-.84,3.64,1,7.31,2,11,3.23A3,3,0,0,0,230.5,141.86Zm-11.83,14.73a11,11,0,0,1,.68,2.08l-.76-.12C218.62,157.9,218.65,157.24,218.67,156.59ZM54.42,119.44l-1.22.14c.17-.41.35-.81.52-1.22.38.21.76.43,1.13.67ZM58.9,64.77a34.58,34.58,0,0,0,0,4.8c-.29.19-.56.4-.84.6-1,0-2,0-3,.06-.14-1.45-.26-2.82-.36-4.12C56,65.64,57.43,65.19,58.9,64.77Zm6.61-1.65c1.87-.38,3.78-.7,5.69-.93l-.49.48c-1.86.93-3.69,1.89-5.47,2.92C65.28,64.83,65.38,64,65.51,63.12ZM58.94,89.2a3.06,3.06,0,0,0,1.15-.35s1.23-.64,3.18-1.4l.23.69c-1.25,1.51-2.49,3.06-3.71,4.67q-.8,0-1.59,0l-.3-1.63C58.24,90.54,58.59,89.87,58.94,89.2ZM166,37.75c.18.22.37.44.54.66.82,1,1.63,2.14,2.42,3.28l-1.09-.39c-.76-1-1.54-2-2.34-2.93C165.66,38.17,165.81,38,166,37.75Zm51.9,72.39c.1.5.17,1,.23,1.55l-.82,0C217.48,111.14,217.69,110.63,217.87,110.14ZM171,131.4c2.1.35,4.23.73,6.37,1.16l1.16,1c0,.53-.11,1.06-.17,1.59-2.62-1.46-5-2.67-7.21-3.65Zm47.22,35.15c-.14.34-.3.67-.47,1,.05-.35.09-.71.13-1.06Zm-24.3.45-.3-.63.56.66Zm-57.55,7,.7.32c.63,2.37,1.24,4.73,1.83,7.06-.87-.35-1.73-.71-2.59-1.09-.23-1-.46-2-.68-2.93C135.9,176.07,136.16,174.94,136.38,174Zm9.17,35c-.84-.69-1.68-1.42-2.54-2.18-1-3.65-2-7.5-3-11.44,1,.78,2,1.55,3,2.32C143.93,201.82,144.8,205.63,145.55,209ZM88.1,43c0,1.06,0,2.16,0,3.29A42.17,42.17,0,0,0,81.69,45c.63-.22,1.25-.46,1.89-.66C85.08,43.86,86.59,43.42,88.1,43Zm11.38.42c-1.16.49-2.3,1-3.43,1.55,0-1.09,0-2.14.06-3.16,1.09.31,2.2.63,3.31,1Zm12.83,23.49c-.13.43-.26.85-.38,1.28l-.52.43-.2-.94Zm33.55,3c.73.28,1.47.55,2.19.85-2.13,1.39-4.32,2.89-6.53,4.46.82-1.51,1.65-3,2.51-4.53Zm-23.59,85.72.38.12,0,.1C122.51,155.79,122.39,155.72,122.27,155.65ZM75.6,138.73l.29.38c-.15.36-.29.72-.44,1.07-.86.71-1.71,1.42-2.52,2.13-.16-.35-.3-.72-.45-1.08C73.51,140.38,74.54,139.55,75.6,138.73Zm28.22.2.12,1.29c-.21-.37-.42-.74-.62-1.12ZM87.17,166.12c1.3-1.59,2.73-3.21,4.26-4.84l1.38-.84c0,.39,0,.77,0,1.16q-2.33,4.91-4.33,10.23c-.64-1-1.28-2-1.9-3C86.76,167.91,87,167,87.17,166.12Zm15,4.42c.26-1.06.5-2.14.77-3.19l.24.2c-.31,1.1-.61,2.22-.9,3.34Zm2.12-97.29c.09.38.18.77.28,1.16l-1.88,1.71a2.14,2.14,0,0,0-.41-.25c-.36-.17-.73-.31-1.1-.46.92-.77,1.83-1.52,2.75-2.26Zm28.79,169.08-1.94.43,0-.09c.19-1.37.4-2.9.65-4.56C132.18,239.51,132.62,240.92,133.09,242.33Zm5-5.2.45.36c-.08.11-.15.23-.23.35C138.26,237.6,138.18,237.37,138.11,237.13Zm1.33-145-.52.08,2.44-1.65C140.7,91.08,140.06,91.6,139.44,92.12Zm-40-41.53.81-.36.09.8ZM89.93,72.72c-.54,0-1.08-.1-1.62-.13l1.43-1.16C89.8,71.86,89.86,72.29,89.93,72.72Zm30.12,166.77c-.48-.94-1-2-1.61-3.22.26-1,.52-2,.78-3.08.32,0,.64,0,1,0a14.21,14.21,0,0,0,2.2,3.45c.58,1.85,1.12,3.49,1.63,5C122.69,240.91,121.36,240.21,120.05,239.49Zm-1.28-76.67c0-.69-.07-1.38-.09-2.07.83.53,1.65,1.06,2.5,1.58-.06.17-.11.34-.17.51l-1.57.83C119.21,163.39,119,163.1,118.77,162.82Zm56.19-3,.6-.13c0,.19-.05.36-.07.54Zm25.17,4.4.47.48a.25.25,0,0,1,0,.07Zm-35.08-15.26c-1.72.26-3.46.55-5.24.88q-2.13-1.17-4.06-2.13c2.58.29,5.33.51,8.21.65Zm-9.72-112.1c-.48-.22-1-.44-1.43-.64l.36-.32C154.62,36.18,155,36.5,155.33,36.83Zm-44.25,10c-1,.58-2,1.2-3,1.83-.06-.5-.11-1-.17-1.47l1.29-.45,1-.28Zm-37.87,49c-.88-2.13-1.67-4.19-2.39-6.14.78-1,1.56-2,2.36-2.92l0,0c.87,1.85,1.84,3.81,2.89,5.85-.75,1-1.5,2-2.24,3.08ZM47.1,71.39c-1.23.29-2.41.62-3.48,1,.66-1,1.36-1.88,2.06-2.81L46.89,69C47,69.8,47,70.58,47.1,71.39ZM27,199v.06c0-.07-.06-.15-.08-.22Zm73.47,38.23c.6.75,1.18,1.47,1.75,2.16,0,.64,0,1.27,0,1.92-.57-.14-1.13-.31-1.69-.47C100.52,239.62,100.51,238.42,100.48,237.22ZM87.34,247.63v0l0,0Zm49.95-27.71c-.1-.28-.18-.55-.28-.82l2.1.46C138.51,219.68,137.9,219.81,137.29,219.92Zm20.55-11.07c-.07-.32-.13-.66-.2-1l.62.38ZM155.36,197c-.29-1.27-.58-2.55-.89-3.86l.51.12c.46,1.49.93,3,1.39,4.42Zm68.2-27.14a28,28,0,0,0,1.08-2.59l1.45.12c-.27.86-.58,1.71-.88,2.56Zm2.13-10.48c0-.35-.05-.7-.1-1.05a17.61,17.61,0,0,0-.39-1.84c.94,1,1.89,2,2.86,3.09Zm-32.3-21.92.62.6-.65-.09C193.38,137.78,193.38,137.61,193.39,137.44Zm7.59,8.2.69.15.42.44-.86.26-.4-.43Zm14.45-26.18.8.05,1.27,1a53.73,53.73,0,0,1-1.51,5.6Q215.83,122.81,215.43,119.46Zm11.42.62,1.84.07c.12.62.25,1.23.36,1.85Zm-2.34-8a22.1,22.1,0,0,0-1.53-7l1.78.92c.21.59.43,1.18.63,1.78.49,1.46.94,2.94,1.36,4.41ZM189.34,72.54c0-.11-.05-.22-.07-.33l.44-.19.26.35Zm6.52-2.93c1.33-.49,2.71-1,4.09-1.47.11.27.22.53.32.8-.73.24-2.07.69-3.88,1.37C196.22,70.08,196,69.85,195.86,69.61Zm-5.2-6.49c-1.47-1.68-3-3.32-4.53-4.9a3.69,3.69,0,0,0,.48-.64c2.21,1.44,4.36,3,6.45,4.62C192.24,62.5,191.46,62.82,190.66,63.12Zm-32.8-3.67c1.75-.88,3.54-1.78,5.44-2.69,1.36.94,2.71,1.91,4,2.94q-2.07,1-4.32,2.23C161.32,61.06,159.6,60.24,157.86,59.45ZM176.79,42c-.32-.51-.66-1-1-1.52.65.37,1.31.73,1.95,1.11ZM140.27,29.18a16.76,16.76,0,0,1,2.13.27l-3.15,1.75c-1.61-.4-3.22-.78-4.85-1.11A14.62,14.62,0,0,1,140.27,29.18Zm-100.76,100c.19,0,.38,0,.58,0-.38,1.07-.73,2.19-1.08,3.3-.26-1-.52-1.92-.76-2.87ZM32,136.83c.13.44.25.88.38,1.32-.17-.39-.33-.78-.49-1.16ZM98.22,251.36a3.1,3.1,0,0,0,.29-.5c1.91.45,3.83.84,5.78,1.16.88.15,1.75.24,2.63.36a2.43,2.43,0,0,0,.08.47C104,252.47,101.11,252,98.22,251.36Zm80.27-41.2.15-.13a1.23,1.23,0,0,1,0,.19Zm32.29-17.38a98.12,98.12,0,0,0,3.95-11q1.71-1.74,3.17-3.43c.8,1,1.6,2,2.41,3a91.26,91.26,0,0,1-7.6,12.3Zm-4-126.94.21-.07q.95,1.1,1.86,2.22C208.16,67.26,207.47,66.55,206.77,65.84ZM192.71,54a101.3,101.3,0,0,0-9.77-6l3-1.22q2,1.41,3.95,2.89Q191.32,51.74,192.71,54ZM124.12,28.53a95.07,95.07,0,0,0-17.45,0V27.21a115.18,115.18,0,0,1,19.25-.78Q125,27.42,124.12,28.53ZM71.65,38.26c0,.2,0,.45,0,.73A92.44,92.44,0,0,0,54,51.12a4,4,0,0,0-.93-2,112.09,112.09,0,0,1,17.34-10.8Zm-38.88,37c-.47.7-.93,1.42-1.38,2.13,0-4,.1-6.33.11-6.42a4.43,4.43,0,0,0,0-.52l1.19-1.54C32.67,70.82,32.69,72.94,32.77,75.26ZM41.5,219.55c1,1.06,2,2.11,3,3.12.18.44.36.85.53,1.25-1.8-1.65-3.56-3.36-5.25-5.12C40.33,219.05,40.9,219.31,41.5,219.55Zm71.36,33.91c.08-.14.17-.28.25-.44.39,0,.78.08,1.17.1,1.15.06,2.29.09,3.43.11l.93.53-2-.07C115.34,253.64,114.1,253.55,112.86,253.46Zm75.07-2.15c-5.18,1.95-10.89,1.31-16.19-.39l1.72-.8a4,4,0,0,0,1.76-.86,121.5,121.5,0,0,0,28.15-19.34l.29-.28C200.29,241.36,195,248.63,187.93,251.31Zm20.37-38a3.89,3.89,0,0,0-1.59,1.87c-1.34,1.52-2.71,3-4.14,4.47l-.75-.25a26.82,26.82,0,0,0,3.15-7.62c.45-.4.88-.84,1.33-1.25,1.09.42,2.21.82,3.32,1.23C209.19,212.28,208.74,212.78,208.3,213.3ZM220,196.47l-1.13-.41A97.18,97.18,0,0,0,226,184.3,113.35,113.35,0,0,1,220,196.47Zm14.2-105.86c1.84,2.65,2.54,6.32,2.13,10.9a121.57,121.57,0,0,0-5.78-14.17A11.12,11.12,0,0,1,234.22,90.61ZM110.48,8.31c4.86-1.25,12.84.06,25.07,10.79l-.27.13q-4.36-.51-8.82-.71a121.59,121.59,0,0,0-27.37,1.85C100.9,16,104.44,9.88,110.48,8.31Zm-95.4,53C20,50.46,35.46,43.58,51.53,40.38A121.91,121.91,0,0,0,15.81,79.72C12.91,72.85,12.66,66.69,15.08,61.29Zm2.71,36.58q-1.62,1.48-3.07,3,.85-2.37,1.8-4.68C16.93,96.78,17.35,97.32,17.79,97.87ZM8.21,132.24a30.84,30.84,0,0,0,3.7,5.36,21.75,21.75,0,0,0-.56,4.94,21.27,21.27,0,0,0,.27,3.29A47.34,47.34,0,0,0,9,155.7,115.39,115.39,0,0,1,8,135C8.06,134.08,8.15,133.16,8.21,132.24Zm112,137.5c-8.84.94-17.32-4.92-23.28-10.54a122,122,0,0,0,19.27,2.41c3.16.14,6.31.15,9.44.05,1.26,1.44,2.6,2.89,4,4.28A19.73,19.73,0,0,1,120.25,269.74Zm29-1.84c-2.26.45-4.92-.53-7.69-2.36a62,62,0,0,0,4.63-6.28q5.72-1.17,11.29-2.9C155.33,263.24,152.5,267.26,149.23,267.9Z"/></g></g></svg>