<svg xmlns="http://www.w3.org/2000/svg" viewBox="0 0 260.66 262.38"><defs><style>.cls-1{fill:#f2f2f2;}</style></defs><title>yarn-ball4</title><g id="Layer_2" data-name="Layer 2"><g id="Layer_1-2" data-name="Layer 1"><path class="cls-1" d="M222.29,43.11c.12-8.26-1.53-17.33-7.6-24.08C206,9.37,190.62,7,169,11.83c-1.74-.6-3.48-1.15-5.23-1.67,0-.46,0-.92-.06-1.39a4,4,0,0,0-7.8-.65c-1.5-.33-3-.62-4.53-.9A3.83,3.83,0,0,0,150,7a119.5,119.5,0,0,0-27.38-1.45c-2-4-3.23-4.61-4.24-5.11a4,4,0,0,0-4.87,6c-.44.06-.87.14-1.31.21-.47-1.14-.93-2.28-1.44-3.42a4,4,0,0,0-7.24,3.22c.25.55.47,1.11.7,1.66A124.13,124.13,0,0,0,90.3,11.9c-1.08.37-2.16.76-3.22,1.16A3.94,3.94,0,0,0,80,14.2a8.28,8.28,0,0,0-.21,1.88,121.1,121.1,0,0,0-17.37,9.59c-12.66.64-21.22,4.15-25.47,10.53-3.32,5-3.35,10.59-2.46,15.14a122.92,122.92,0,0,0-23,46.76C6,107.91,3.17,118.28,6,126.91a20.6,20.6,0,0,0,1.35,3.2c-2.26,6.65-2.93,13.22-1,19l0,.09C-1.31,167.33-2,180.85,4.18,189.48c7.68,10.64,22.85,9.76,27,9.29A119.87,119.87,0,0,0,46.48,216c9,20.88,27.38,45.34,47.78,46.36,7,.35,13.52-1.92,19.6-6.78a49.36,49.36,0,0,0,7.39-7.47,121.61,121.61,0,0,0,97.66-39.51c4.73-2.21,7.74-3.9,8.2-4.16a3.54,3.54,0,0,0,.51-.35,3.93,3.93,0,0,0,0-6.18,122.84,122.84,0,0,0,20.9-47.77c.33-.24.64-.48.92-.7a21,21,0,0,0,3.39-3.24,3.94,3.94,0,0,0-2.69-6.34,120.35,120.35,0,0,0,.65-19.2c3.34-5.38,15.46-26.94,6.84-43.62a28,28,0,0,0-11.38-11.41c1.43-5.67,1.51-11.23-1.23-15.54C241.32,44.27,233.84,42,222.29,43.11Zm-71.5,193c-5.29,1.64-11.2.46-16.57-1.68,2.18-.27,4.34-.6,6.49-1a17.8,17.8,0,0,0,4.11,2,3.27,3.27,0,0,0,4-2.18,3.08,3.08,0,0,0,.06-1.7c2.57-.71,5.12-1.54,7.63-2.46,1,.22,1.95.41,2.94.54A16.73,16.73,0,0,1,150.79,236.12Zm-33.19,3.71c-2.19-.22-4.38-.49-6.56-.84,2.51-1.07,5.39-2.35,8.56-3.87l1,0C119.61,236.8,118.62,238.38,117.6,239.83Zm-78-43,.92-.27c.12.63.23,1.26.35,1.88C40.45,197.89,40,197.35,39.61,196.81ZM156.09,16.31c0,.79,0,1.57,0,2.35L154,17.89c0-.69,0-1.39,0-2.09C154.68,16,155.38,16.14,156.09,16.31Zm26,9.7a113.94,113.94,0,0,1,19.34,12.68,30.38,30.38,0,0,0-5.37,1.46q-2.59-1.74-5.31-3.3a26.18,26.18,0,0,0-8.64-10.58C182.11,26.19,182.11,26.1,182.1,26ZM118,224.78c1,.25,2,.46,3.08.69l-1.31.66Q118.93,225.47,118,224.78ZM83.7,230.94q-2.37-1-4.7-2.17l-1.7-.86c1-.41,2.21-.92,3.63-1.54l.32.13c1.8,1.74,3.26,3.06,4.21,3.88Zm-50-42.5,1.07-.42c.33.53.66,1.07,1,1.6l-1.1.3C34.33,189.43,34,188.94,33.69,188.44Zm7.24-122.3c0-.28.07-.56.14-.83l.37.51Zm4-6.58-.07-.09.14-.19c.23-.18.43-.38.68-.56C45.47,59,45.21,59.27,45,59.56Zm33.57-22c.87-2.44,1.82-5,2.86-7.73.43,2.31.92,4.79,1.46,7.39C81.37,37.31,79.93,37.42,78.55,37.57Zm12.81-13.1A92.93,92.93,0,0,1,101,21.63c-2.67,5.57-5,10.72-7,15.5l-.34.18-.91,0c-.41-3.75-.76-7.55-1-11.46A3.17,3.17,0,0,0,91.36,24.47Zm18,5.66a11.3,11.3,0,0,1,1.69-1.38c.06.25.11.5.17.75Q110.3,29.8,109.37,30.13Zm25.14,166.51c.19.37.38.73.58,1.09l-1.33,0c.06-.43.13-.86.21-1.3ZM82,212.35a33.84,33.84,0,0,0,4.48-1.72c.29.2.59.37.87.56.35,1,.75,1.91,1.16,2.82-1.3.66-2.53,1.26-3.71,1.83Q83.35,214.18,82,212.35ZM78,206.8c-1-1.61-2-3.27-2.94-5l.63.28c1.54,1.39,3.1,2.75,4.71,4C79.69,206.39,78.87,206.61,78,206.8Zm26.68-3.37a3,3,0,0,0-.74-.94,34,34,0,0,1-2.47-2.46l.56-.46c1.87.62,3.76,1.21,5.7,1.76.2.5.4,1,.61,1.47l-1.41.87C106.2,203.59,105.45,203.52,104.7,203.43Zm-86.86-81,.43-.75c.67-1.14,1.4-2.29,2.16-3.44,0,.38,0,.77.05,1.16-.66,1.07-1.28,2.15-1.88,3.24ZM66.4,47.77c.43-.27.88-.53,1.36-.77.08.26.16.51.25.78C67.47,47.77,66.93,47.76,66.4,47.77Zm36.85,35.92c-.44-2.09-.86-4.2-1.24-6.36q.26-.7.51-1.44l1.54-.42c-.41,3-.65,5.66-.77,8A1.49,1.49,0,0,0,103.25,83.69Zm15.57-56.77c.36,0,.73,0,1.1.07l-1,.26C118.87,27.14,118.84,27,118.82,26.92Zm9.25,22.47-.48.52.42-.77Zm27.46,51.06c0-.25,0-.52.05-.77l5.91-4.27c0,.93,0,1.87-.07,2.81l-2.48,1.7C157.63,100.14,156.48,100.32,155.53,100.45Zm29.3-21.28c-.34,1-.71,2.08-1.11,3.16-3,2.25-6.26,4.58-9.56,7,.37-1.19.74-2.38,1.09-3.59C178.69,83.3,181.93,81.1,184.83,79.17ZM51.08,193.07c1-.37,2-.75,3.08-1.16a41.52,41.52,0,0,0,1.1,6.4c-.44-.5-.88-1-1.3-1.52C53,195.58,52,194.33,51.08,193.07Zm-3.75-10.75c.88.89,1.78,1.77,2.69,2.63-1,.39-2,.75-3,1.09-.11-1.13-.22-2.28-.3-3.44C46.94,182.5,47.13,182.41,47.33,182.32Zm17.22-20.5,1.33-.11.58.33-.8.52Zm-9.41-32.34c0-.79,0-1.57,0-2.36,2.07,1.48,4.26,3,6.53,4.47-1.7-.21-3.42-.44-5.14-.7Q55.8,130.17,55.14,129.48Zm88.42-9.21c0-.13,0-.26,0-.39l.1,0C143.61,120,143.59,120.14,143.56,120.27Zm1.22,49.63.25-.41,1.15,0c1,.55,1.95,1.07,2.91,1.58l-.85.81C147.08,171.25,145.92,170.59,144.78,169.9ZM134.7,143.54l1.16-.58-.82,1Zm31.38,5.62c-2-.64-4-1.37-6.05-2.21l-1.28-1,1.08-.4c3.61.25,7.31.37,11.1.31-.7,1-1.4,1.92-2.12,2.87C167.9,148.89,167,149,166.08,149.16Zm-1.34-15.59c-1.08.15-2.17.31-3.25.44,0-.1.07-.2.1-.29,1.14-.11,2.29-.24,3.44-.38ZM73.34,167l1-.68c.75.38,1.5.76,2.27,1.13a2.6,2.6,0,0,0-.09.47c0,.4,0,.79,0,1.19-1-.57-2.09-1.15-3.11-1.74C73.37,167.23,73.36,167.11,73.34,167Zm147-88.32c.37.55.74,1.1,1.1,1.66l-.07.06c-1.35.32-2.86.68-4.49,1.05C218.07,80.54,219.23,79.62,220.38,78.66Zm-6.68-2.78.17-.55.41.09ZM78.14,127.38l.27.46c-.83-.55-1.63-1.11-2.43-1.67ZM54,179.79l-.63-.62.71-.39C54.08,179.12,54,179.46,54,179.79Zm24.06.77c.15.52.3,1,.47,1.56l-1.6-.91ZM222.47,91.84c-.7.8-1.51,1.69-2.42,2.68l-3.15.39c-.12-.3-.23-.6-.36-.9A14.17,14.17,0,0,0,219,90.7c1.52-1.21,2.85-2.31,4-3.33C222.84,88.87,222.66,90.36,222.47,91.84Zm-71,29.08c-.63.28-1.25.57-1.89.84.19-1,.39-1.92.56-2.9l.54,0c.44.39.9.78,1.35,1.16ZM128.26,69.68c-.12-.17-.23-.34-.34-.51l.53-.13ZM123.2,44.63l.27-.61h.07Zm-1.45,38.23q1.29,2.27,2.72,4.57c-.21,1.6-.38,3.12-.51,4.55-.67-2.5-1.46-5.14-2.38-7.87C121.63,83.69,121.69,83.29,121.75,82.86ZM20.85,132.7c0,.52-.05,1-.07,1.56l-.43-.22C20.51,133.59,20.68,133.14,20.85,132.7Zm25.41,37.58c.91.72,1.85,1.44,2.8,2.17l-1.3.69c-.3-.35-.6-.69-.88-1s-.41-.52-.62-.78Zm59.43,17.45c-1.67,1.6-3.29,3.08-4.86,4.46-1.19-.37-2.39-.74-3.58-1.14l0,0c1.41-1.48,2.88-3.09,4.4-4.81,1.2.34,2.44.66,3.68,1ZM92.41,220.94c.73,1,1.46,2,2.16,2.9-1.13-.27-2.24-.59-3.35-.9L90.3,222Zm126.17-27.69.06,0a1.3,1.3,0,0,1-.18.15Zm8.89-82.35c.49-.83.95-1.64,1.38-2.42.59-.24,1.18-.46,1.78-.71.07.58.12,1.16.18,1.74C229.69,110,228.58,110.43,227.47,110.9ZM242,119.35h0l0,0ZM198,82.91l-.67.55c-.11-.71-.21-1.41-.33-2.12C197.3,81.86,197.64,82.38,198,82.91ZM180.19,67.79l-.87.54c.05-.23.08-.47.13-.71ZM170,74.41l-3.28,2.23-.06-.51,3.61-2.9ZM119.94,20.76a26.69,26.69,0,0,0-2.81-.07c-.13-.46-.27-.92-.41-1.39.9-.06,1.8-.08,2.71-.11C119.6,19.7,119.77,20.22,119.94,20.76ZM109.4,22.58c-.31.16-.63.3-.94.48a15.81,15.81,0,0,0-1.57,1c.59-1.25,1.2-2.51,1.84-3.79C109,21.07,109.18,21.82,109.4,22.58Zm-8.67,38.07.33-.79c0,.2.11.41.16.62Zm4.88-10.06c0-.25-.07-.46-.11-.69s.17-.37.25-.55l.56.7c-.08.18-.17.36-.25.53ZM76,46.66c-.09-.26-.17-.51-.25-.77.17-.51.33-1,.51-1.56A56,56,0,0,1,82,43.7C80,44.61,78,45.61,76,46.66ZM72.39,35.79c-.2-.6-.4-1.18-.6-1.73.53-.34,1.06-.69,1.59-1C73,34,72.71,34.89,72.39,35.79ZM65.77,40.9a21.73,21.73,0,0,0-6,4l.21-2c.47-.41.94-.83,1.43-1.23,1.18-1,2.39-2,3.61-2.88ZM41.75,88l-.29.18-.33-.34.23-.37Zm-5.1-5c-.94-1.05-1.9-2.16-2.85-3.27l.62-.59c.49.6,1.4,1.68,2.69,3.12C37,82.52,36.81,82.77,36.65,83ZM32.5,90.22c-1,2-2,4-2.92,6a3,3,0,0,0-.77-.21c.54-2.59,1.2-5.15,2-7.69C31.35,89,31.92,89.59,32.5,90.22ZM41,122.11c-1.46-1.31-2.95-2.65-4.49-4.08.39-1.62.8-3.23,1.27-4.83,1.15,1,2.36,2.1,3.66,3.21C41.25,118.31,41.11,120.21,41,122.11ZM17.83,110.83c-.36.49-.7,1-1,1.48.1-.74.2-1.48.32-2.22Zm1.38,38.67a16.22,16.22,0,0,1-.52-2.08c.94.79,1.87,1.55,2.78,2.3q.3,2.47.72,4.92A14.47,14.47,0,0,1,19.21,149.5ZM149,207c-.06-.19-.14-.36-.19-.56,1.14,0,2.3-.11,3.47-.18l-2.4,1.74Zm9.9,4.21,1.09-.83-.91.88Zm82.58-103.36a2.82,2.82,0,0,0-.57-.09c-.27-1.94-.6-3.87-1-5.81-.19-.87-.42-1.71-.62-2.57a3.34,3.34,0,0,0,.4-.25Q240.74,103.49,241.46,107.86ZM173.89,48.07l-.17-.09.18,0S173.89,48,173.89,48.07ZM146,24.32a97.55,97.55,0,0,0-11.73.34q-2.23-1-4.34-1.71c.62-1.1,1.24-2.21,1.91-3.33A89.15,89.15,0,0,1,146,22.23C146,22.93,146,23.62,146,24.32ZM29.17,74.22,29,74.05c.45-.85.92-1.7,1.39-2.54C30,72.41,29.57,73.31,29.17,74.22ZM23.25,91.63a99.45,99.45,0,0,0-2.06,11.29L19,100.61c.39-1.59.8-3.16,1.25-4.73Q21.66,93.75,23.25,91.63Zm1.22,73.15A94.68,94.68,0,0,0,30.86,181l-1.26.49a115.2,115.2,0,0,1-7.74-17.65C22.71,164.19,23.57,164.5,24.47,164.78Zm28.15,45.34.7-.24a92.21,92.21,0,0,0,17.72,12,3.9,3.9,0,0,0-1.56,1.61A112.88,112.88,0,0,1,53.1,211.3Zm48.61,22.76c.83.18,1.66.35,2.5.51-3.75,1.49-6,2.21-6,2.23s-.32.14-.48.21c-.62-.18-1.25-.35-1.87-.55C97.13,234.59,99.1,233.8,101.23,232.88Zm131.24-60.61c.63-1.3,1.24-2.6,1.82-3.92l1-.94q-1.32,3.42-2.86,6.75C232.43,173.53,232.46,172.91,232.47,172.27Zm5.62-78.81-.49-.07c-.12-.37-.21-.76-.34-1.13-.35-1.09-.74-2.17-1.14-3.24,0-.33.1-.7.15-1,.23.64.46,1.28.68,1.93C237.36,91.08,237.73,92.27,238.09,93.46ZM208.78,24.31c3.71,4.12,5.19,9.67,5.53,15.23L213,38.23a3.94,3.94,0,0,0-1.45-1.33,121.19,121.19,0,0,0-28.25-19.18l-.37-.18C195,16.42,203.71,18.68,208.78,24.31ZM166,19.16a4,4,0,0,0,2.32.81q2.86,1,5.67,2.22c0,.27,0,.53,0,.79a26.93,26.93,0,0,0-8.25-.16c-.54-.27-1.1-.52-1.65-.78,0-1.17,0-2.36-.06-3.54ZM146,14.37l0,1.2a96.23,96.23,0,0,0-13.54-2.34A111.22,111.22,0,0,1,146,14.37ZM42.26,39.65c1.8-2.68,5-4.67,9.37-5.95A121.52,121.52,0,0,0,40.54,44.24,11.1,11.1,0,0,1,42.26,39.65ZM10.61,184.84c-2.94-4.06-4.62-12,.93-27.28.07.08.15.14.22.21.74,2.84,1.58,5.66,2.54,8.48A122.06,122.06,0,0,0,26,191.07C21.25,191,14.26,189.9,10.61,184.84Zm84.05,69.6c-11.87-.6-23.91-12.54-32.74-26.34a123.14,123.14,0,0,0,13.58,7.78,121.54,121.54,0,0,0,36.06,11.18Q103.54,254.86,94.66,254.44Zm33.08-15.82c1.32.63,2.64,1.22,4,1.74-1.68,0-3.35.06-5,0C127,239.81,127.39,239.22,127.74,238.62Zm35.5-3.58a30.73,30.73,0,0,0,3.65-5.4,21.69,21.69,0,0,0,4.81-1.28,20.28,20.28,0,0,0,3-1.45,46.49,46.49,0,0,0,10.14-1.18,113.39,113.39,0,0,1-18.92,8.47C165,234.5,164.12,234.76,163.24,235ZM250.57,80.66c4.09,7.89,1.72,17.92-1.35,25.51a120.42,120.42,0,0,0-4.76-18.82q-1.53-4.5-3.38-8.81c.88-1.7,1.74-3.48,2.52-5.3A19.69,19.69,0,0,1,250.57,80.66ZM238.32,54.33c1.24,1.94,1.29,4.78.6,8a60.54,60.54,0,0,0-7.53-2q-3.18-4.9-6.81-9.47C231.76,50.35,236.53,51.51,238.32,54.33Z"/></g></g></svg>