<svg xmlns="http://www.w3.org/2000/svg" viewBox="0 0 260.36 234.92"><defs><style>.cls-1{fill:#f2f2f2;}</style></defs><title>yarn-ball1</title><g id="Layer_2" data-name="Layer 2"><g id="Layer_1-2" data-name="Layer 1"><path class="cls-1" d="M237.73,72.55a113.62,113.62,0,0,0-8-16.55,3.69,3.69,0,0,0,1.33-1.41,3.74,3.74,0,0,0-1.53-5.07,20.53,20.53,0,0,0-5.06-1.66,114.68,114.68,0,0,0-36.4-33.1,3.63,3.63,0,0,0,.39-1.36,3.75,3.75,0,0,0-3.41-4.06c-.48,0-3.64-.29-8.42-.3A111.39,111.39,0,0,0,120.56.65,112.9,112.9,0,0,0,77.85,14.13c-10.58-5.31-20-5.91-28.22-1.73C32.23,21.26,25.9,50.22,26.29,72.22a118.33,118.33,0,0,0-6.42,20.94c-3.43,1.16-17,6.48-19.5,18.93-2,10,3.9,21.37,17.41,34a.76.76,0,0,0,0,.15c.62,5.78,3.72,11.21,8.23,16.07a20.53,20.53,0,0,0,.07,3.32c.92,8.55,7.26,16.33,15.55,22.64a114.83,114.83,0,0,0,18,18.42,112.79,112.79,0,0,0,19.91,13c1,4.3,3.18,9.14,7.93,12.11,6.1,3.83,14.79,3.42,25.88-1.15a110.91,110.91,0,0,0,17,1.33l1.42,0a8.35,8.35,0,0,0,.89,1.51,3.8,3.8,0,0,0,2.95,1.41,3.74,3.74,0,0,0,3.7-3.26c1.06-.08,2.12-.18,3.17-.29a113,113,0,0,0,13.27-2.23c0,.57,0,1.12,0,1.69a3.75,3.75,0,0,0,3.75,3.73h0a3.75,3.75,0,0,0,3.73-3.77c0-1.22-.05-2.42-.09-3.62l1.13-.35a3.74,3.74,0,0,0,6.56,3.22c.67-.83,1.49-1.86,1.64-6.14a113.82,113.82,0,0,0,22.55-12.15l.07,0a3.6,3.6,0,0,0,1.43-1c1.12-.8,2.23-1.62,3.32-2.46a3.77,3.77,0,0,0,3,1.48,3.6,3.6,0,0,0,1.33-.24,3.76,3.76,0,0,0,2.18-4.84c-.17-.45-.35-.89-.52-1.34q1.94-1.72,3.81-3.53c20.36-4.49,32.58-12.75,36.29-24.58,2.61-8.32.49-16.89-2.81-24,10.35-3.67,15.87-8.68,16.75-15.22.65-4.81-1.56-9.58-5-13.91a27.09,27.09,0,0,0,5.35-14.64C261.14,89.67,242.81,76,237.73,72.55ZM252.85,107a19.39,19.39,0,0,1-3.11,9.4c-1.35-1.24-2.74-2.41-4.12-3.51-.06-3-.23-6-.51-9a119.31,119.31,0,0,0-3.2-18.32C247.41,90.91,253.23,98.59,252.85,107Zm-57.5,95.27c-.25-.59-.51-1.18-.77-1.76.52-.5,1-1,1.52-1.52.28.67.57,1.33.85,2Zm11.72-75.86c-.07.59-.16,1.17-.25,1.76-.17-.67-.36-1.32-.53-2ZM187.18,146,183,144.93c-.05-.16-.09-.32-.14-.48,1.24.22,2.47.42,3.67.62ZM171.09,130.3l-6.7-1.32c-.11-.22-.24-.45-.34-.66.86-.26,1.91-.57,3.12-.9l2.77.47C170.33,128.69,170.72,129.49,171.09,130.3ZM85.55,208.54l-.19-.11a.36.36,0,0,1,0-.1c.31.15.64.28,1,.42h0C86.06,208.7,85.82,208.61,85.55,208.54ZM80,204.32c0,.21-.09.4-.13.6-.16-.22-.29-.45-.44-.67Zm-8.31-19.39c0,.22-.08.41-.13.62l-.29-.2.15-.45ZM69.9,191.8c-.55,1.77-.91,3.07-1.1,3.79l-.72-.25c.39-1.34.78-2.68,1.18-4C69.48,191.5,69.68,191.66,69.9,191.8ZM42,175.76c-.4-.63-.81-1.26-1.2-1.9l1.55.91ZM28.67,140.69a14.12,14.12,0,0,1,.57-5.65c.38,1.51.81,3,1.26,4.5-.49,1-1,2.05-1.48,3.11A14.64,14.64,0,0,1,28.67,140.69ZM146.4,116.28l-.09,0c0-.12-.09-.24-.13-.35Zm14.67,90.6-.06-.31,1-.18C161.67,206.56,161.37,206.73,161.07,206.88Zm-19.72-50.7c-.27-2.74-.61-5.35-1-7.79.66,1.19,1.39,2.44,2.19,3.74-.22,1.72-.41,3.4-.57,5.06Zm-8.76,28.75.48-.06c0,.2.07.41.11.61ZM41.36,166.28l.41,1c-1.1-.69-2.17-1.39-3.18-2.11l-.64-.47.56-.48C39.44,164.93,40.39,165.62,41.36,166.28ZM182,22.37l.29.08h-.08ZM158.49,190.16l-.06,0-.47-.42ZM153,166.48l-.5.1.09-.58ZM79.32,73.22c.86-.83,1.74-1.63,2.62-2.43,1.86.57,3.82,1.2,5.86,1.92,0,.21-.09.41-.13.62-.94.77-1.87,1.55-2.77,2.33-2-.89-3.84-1.69-5.61-2.41Zm5-13.14c-1.44,1.26-2.83,2.53-4.19,3.81l-.66-.17c.62-1.91,1.14-3.08,1.16-3.12a2.83,2.83,0,0,0,.27-1.12l1.88-1.14,1.5.18C84.28,59,84.29,59.55,84.32,60.08ZM224.86,90.14c.17.53.36,1,.52,1.58l-1.79.11c-.68-.51-1.38-1-2.11-1.55C222.61,90.24,223.72,90.17,224.86,90.14ZM68.19,103.77l-.12-.38q1-1.38,2-2.76c.16.34.31.69.48,1a2.49,2.49,0,0,0,.25.38c-.52.64-1,1.29-1.53,1.93Zm81-16.19c.24-.47.49-.93.74-1.4q2.17-2.34,4.32-4.35c.87-.28,1.76-.53,2.64-.79,1,.52,1.93,1,2.87,1.59l0,.05c-3.3,1.5-6.44,3.12-9.47,4.82Zm74,38.63.67.16-.31.24Zm4.63-5.11c-1.35-.36-2.69-.7-4-1l4.24-.89.08,0C228.06,119.85,228,120.47,227.85,121.1ZM222,111.23a12.9,12.9,0,0,0-3.33-1.89c0-.32,0-.62,0-.93l2.9-1c1.11.47,2.12.91,3,1.31.75,1.22,1.48,2.47,2.2,3.72C225.31,112.09,223.75,111.67,222,111.23ZM131.33,69.62c-.64.84-1.28,1.7-1.91,2.59l-1,.47-.39-.26c.73-1.07,1.47-2.13,2.23-3.17ZM65.74,90l1-1.48c.06.53.14,1.06.21,1.58ZM47.21,101.29l-.79-.06c.1-.27.2-.55.31-.82ZM40,101l-.55,0c-.38-1.07-.74-2.13-1.09-3.18l3-.25Q40.65,99.21,40,101Zm3.35,9.91c.08-.31.14-.61.22-.91s.24-.86.37-1.3l1.39.08c-.55,1-1.08,2-1.58,3Zm20-.24.89.13-.4.56-1.18.44Zm3.75,33c.19-.55.4-1.12.61-1.7,1.36-.91,2.72-1.78,4.08-2.65-1.34,2.17-2.61,4.31-3.79,6.4C67.68,145,67.39,144.28,67.09,143.59Zm20.47-7.51c-.39.53-.78,1.06-1.17,1.62.4-.69.79-1.37,1.21-2.07C87.58,135.79,87.57,135.93,87.56,136.08Zm42.22-37.27,1.17.57-1.31,0C129.68,99.17,129.73,99,129.78,98.81ZM159.48,96c-1,.34-2.07.7-3.09,1.06l-.19-.21c1-.33,2-.62,3-.93ZM230.56,77l.13.07h-.1ZM117.73,37.27l2.79.56c-1,.42-2.11.83-3.12,1.27,0-.19,0-.37-.05-.56C117.47,38.1,117.6,37.69,117.73,37.27Zm-8.67,14.92c0,.39,0,.77-.07,1.17l-.37.44c-.24-.35-.46-.7-.68-1Zm-45.41-2.9-2.23-.07L61.86,48c.83-.72,1.66-1.45,2.52-2.14C64.12,46.92,63.87,48.07,63.65,49.29ZM63,56.81c0,1,0,1.95.1,2.95-.17.28-.36.55-.53.84a31.8,31.8,0,0,0-4.49.31c.33-1.45.69-2.84,1.06-4.19Zm-6.14,10.5c.81-.18,1.59-.32,2.3-.41-.88,1.76-1.69,3.57-2.47,5.4l-.43.5C56.34,71,56.54,69.12,56.81,67.31ZM39.09,90.11c.3-1.48.63-3,1-4.43.17-.62.36-1.23.53-1.84a42.12,42.12,0,0,0,1.54,6C41.11,89.94,40.09,90,39.09,90.11Zm70.48,119.17c0,.26.05.51.08.77-.49,0-1-.06-1.42-.13C108.67,209.72,109.12,209.5,109.57,209.28ZM128.24,171q-.51-.53-1-1c-.51-2-1-4-1.4-6l.1.14c1,2,2.27,4.25,3.77,6.67Zm31.44,12.44.58.24a1.57,1.57,0,0,0,0,.23Zm77.62-77.65c-.07-1.09-.15-2.18-.27-3.27,0-.37-.1-.74-.15-1.11l.35-.23c.14,1.16.3,2.3.41,3.47.06.64.11,1.29.16,1.93ZM236,95.52c-.15-.83-.28-1.66-.46-2.48-.4-1.85-.86-3.66-1.37-5.45a3,3,0,0,0,.43-.3c.71,2.72,1.3,5.48,1.8,8.27A2.58,2.58,0,0,0,236,95.52ZM125.74,31.29,124.19,31l.16-.15ZM86.49,33.71c-.81.62-1.63,1.23-2.42,1.88.32-.64.66-1.28,1-1.91l.06,0Zm-59.4,67.35-1,.06.27-1.75,1-.17C27.25,99.82,27.17,100.44,27.09,101.06Zm8.8,52.23.67,1.32-1-1Zm22,2.43c.81,1.59,1.65,3.17,2.55,4.72q-1,2.22-1.89,4.25c-1-1.18-2-2.4-2.92-3.63Q56.77,158.3,57.89,155.72Zm.19,27q2.33,2.07,4.78,4c-.25.78-.5,1.54-.75,2.34-1.61-1.89-3.16-3.83-4.6-5.84A3,3,0,0,0,58.08,182.73Zm46.58,34-1-1.64a20,20,0,0,0,6.6,1q.1,1.11.21,2.13c-1.39-.31-2.78-.65-4.17-1Zm13.34,1.2,1.87,1.94c-.57-.06-1.14-.15-1.71-.23C118.11,219.1,118.06,218.53,118,217.94Zm0-9-1-1.11-.09-.81q3.14.18,6.27.14A50.78,50.78,0,0,1,118,209Zm8.39,3.48c.53,2.46,1.07,4.8,1.6,7q-2.89-2.88-5.4-5.52C123.77,213.46,125,213,126.34,212.43Zm12,6.32c-1.3-3.49-2.46-6.93-3.56-10.35l.77-.4.36,0c3.54,3.34,7.48,6.89,11.91,10.64a88.43,88.43,0,0,1-9.32,1.42A3,3,0,0,0,138.37,218.75Zm2.27-27.07.38-.17.42.36c-.07.28-.14.56-.2.83l-.43-.37Zm12.91,16c0,.23.1.47.14.7a10.54,10.54,0,0,1-1.95-.51Zm.14,6.69c.32,0,.64,0,1,0,.1.73.21,1.47.3,2.21-1-.85-2-1.68-3-2.51A13.74,13.74,0,0,0,153.69,214.41ZM162,213a24.94,24.94,0,0,0,2.31-1.16c.06.54.12,1.06.17,1.56-.76.33-1.53.67-2.3,1Zm13.05-10.32a90.77,90.77,0,0,0,10.14-4.43c.29.6.58,1.2.86,1.8A85.93,85.93,0,0,1,175,208c-1-.71-1.95-1.42-2.91-2.13Q173.56,204.39,175.09,202.64Zm-22.71-88.12c-.53-.79-1.07-1.55-1.6-2.31.66,0,1.32,0,2,0l.8.56c-.24.53-.49,1.06-.72,1.58Zm31.85,16c3.75.72,7.42,1.46,10.89,2.19.76.77,1.48,1.53,2.17,2.29-3.24-.51-6.87-1.12-10.76-1.81C185.77,132.27,185,131.38,184.23,130.5ZM107.66,12.56a15.32,15.32,0,0,1,9.9,2.15c-.79.52-1.56,1.08-2.29,1.66q-3.76.31-7.48.94a2.94,2.94,0,0,0-.7-1.45,3,3,0,0,0-4.25-.29A17.05,17.05,0,0,0,100.1,19q-3,.76-5.94,1.74C97.92,16.68,102.52,13.27,107.66,12.56Zm-25.37,13-1,.48c-3.23,0-6.14,0-8.66.09,1.73-1.18,3.49-2.32,5.29-3.4C79.37,23.56,80.82,24.52,82.29,25.55Zm-20.16,8.8a3.05,3.05,0,0,0,.43,0c.08,0,2.24-.28,6-.5-.69.51-1.37,1-2,1.54-2.12.06-4.07.16-5.83.27ZM52.49,44l1.6-.21c-.49,1.1-1.25,2.85-2.11,5.1l-.27.28c-1.4,0-2.6.08-3.59.12Q50.22,46.61,52.49,44ZM43.15,56.27A3.61,3.61,0,0,0,45,57,90.15,90.15,0,0,0,34.51,74.62l-.62.07c0-.37,0-.75,0-1.12A111.06,111.06,0,0,1,43.15,56.27ZM28.73,91.34l-.8.13c.14-.57.27-1.13.42-1.7C28.46,90.29,28.6,90.82,28.73,91.34ZM25.26,108.7l1.2-.08a91.9,91.9,0,0,0,.82,16.7c-.66.6-1.27,1.2-1.85,1.81A110.31,110.31,0,0,1,25.26,108.7Zm22.08,74.61q.51-1.5,1-3a96,96,0,0,0,6.08,8.92Q52.16,188,50,186.65C49.1,185.56,48.21,184.44,47.34,183.31ZM66.25,202c1,.88,2,1.74,3,2.57-1-.75-2-1.53-3-2.31Zm122.44,3.76.42,1a107.14,107.14,0,0,1-10.74,6.27A92.38,92.38,0,0,0,188.69,205.77Zm11.25-39.41.06.12-.18,0Zm-3.21-19.77,1,.13-.58.46Zm18.71,35.51-.06-.16a25.52,25.52,0,0,0,3.3-12.64q1.71-2.45,3.26-5a28.11,28.11,0,0,0,5-.87A111.57,111.57,0,0,1,215.44,182.1ZM206.51,38.19l-1.37-.49c-1-.91-2-1.79-3.07-2.66-.27-.59-.55-1.15-.83-1.71C203.05,34.9,204.82,36.51,206.51,38.19ZM121.35,8.11a105.26,105.26,0,0,1,11.32-.61c2.76,0,5.5.12,8.22.34a43.77,43.77,0,0,0-9.28,3.09,19.62,19.62,0,0,0-7.68.77,29.08,29.08,0,0,0-5.31-3.27C119.52,8.31,120.44,8.2,121.35,8.11ZM89.7,16.6c-.93,1-1.83,2-2.7,3.1-.52-.37-1-.74-1.57-1.09C86.83,17.91,88.26,17.24,89.7,16.6ZM36.94,44.65c2.38-9.14,7.09-21,16.1-25.57,4.86-2.48,10.54-2.54,17-.21A117.35,117.35,0,0,0,34.87,55.35,96.58,96.58,0,0,1,36.94,44.65ZM7.72,113.57c1.16-5.93,6.68-9.68,10.69-11.67A118.58,118.58,0,0,0,18,128.1c.27,2.86.65,5.68,1.11,8.48,0,.07-.05.14-.08.22C10.38,127.81,6.49,119.91,7.72,113.57Zm83,113.12a10.18,10.18,0,0,1-3.23-3.27A110.26,110.26,0,0,0,101,228.08C96.78,228.74,93.31,228.29,90.74,226.69Zm110.89-33.82c.36-.45.75-.88,1.1-1.34a25.07,25.07,0,0,0,7-3.45c.08.22.17.43.25.64q-2,2.25-4.15,4.39a3.69,3.69,0,0,0-1.48,1.45l-1.4,1.32C202.5,194.87,202.06,193.86,201.63,192.87Zm37.23-19.93c-2.18,6.94-8.74,12.4-19.53,16.32a118.81,118.81,0,0,0,16.94-28.19,3.76,3.76,0,0,0,.91-2.21c.19-.46.38-.93.56-1.4C239.59,162.44,240.45,167.86,238.86,172.94Zm13.67-38c-.43,3.2-4.05,6.15-10.39,8.61q1.35-5.4,2.19-11A58.74,58.74,0,0,0,250,127.8C251.8,130.31,252.82,132.76,252.53,134.93Z"/></g></g></svg>