<svg xmlns="http://www.w3.org/2000/svg" viewBox="0 0 1056.16 88.51"><defs><style>.cls-1{fill:none;stroke:#000;stroke-linecap:round;stroke-linejoin:round;stroke-width:3.78px;}</style></defs><title>yarn-long</title><g id="Layer_2" data-name="Layer 2"><g id="Layer_1-2" data-name="Layer 1"><path class="cls-1" d="M1.89,36.72c11.46-13,34-3.27,45.19,7,11.66,10.66,27,14.21,31.18,4.8,5.33-12-5.47-21.53-7.75-23.8C68,22.15,56.8,13.35,61.46,8.78S73,11,81,19s32.85,24.56,42.68,30.61C150.5,66.09,194,60.14,194,60.14s172.14-24,225.77-18.7c92.36,9.18,129.36,32.18,252.36-6.82s264.29,1.16,323,5"/><path class="cls-1" d="M1042.64,68.83s-35.83-23-23.23-64.27"/><path class="cls-1" d="M1034,73.6s-39.28-24.35-24.19-68.21"/><path class="cls-1" d="M1021.28,80S982,58.38,998.17,9.2"/><path class="cls-1" d="M1025.47,77.77S986.42,51.28,999,10.05"/><path class="cls-1" d="M1016.14,80.18S978.58,57.07,990.32,15.6"/><path class="cls-1" d="M979.75,33.75a12.87,12.87,0,0,0,8.37,4"/><path class="cls-1" d="M976.87,38.56s2.07,4.94,13.1,8.49"/><path class="cls-1" d="M979.76,53s6.65,6.1,13.3,3.76"/><path class="cls-1" d="M979.75,58.4s11.43,11,21.4,9.46"/><path class="cls-1" d="M1019.72,36.73s12.28,1.29,30-11.91"/><path class="cls-1" d="M1022.85,46.54s12.28,1.3,30-11.91"/><path class="cls-1" d="M1029.12,54.84s8.11-.58,24.81-11.17"/><path class="cls-1" d="M1034.71,61.64s5.36-.89,17.09-6.91"/><path class="cls-1" d="M1033.22,34.15s9.72-15.93,11.19-17.49"/><path class="cls-1" d="M1023.05,36.54a48.93,48.93,0,0,1,10.32-30.61"/><path class="cls-1" d="M1017.46,25.89s10.74-20.46,13-20.94"/><ellipse class="cls-1" cx="1016.08" cy="42.5" rx="38.46" ry="37.73" transform="translate(185.34 629.1) rotate(-37.62)"/><path class="cls-1" d="M1016.49,3.2c-16.27,49.42,24.6,68.17,24.6,68.17s14.68,6.21,9.76-15.93"/><path class="cls-1" d="M1051.6,51c-53.9,2-57-35.12-57-35.12S993-5.7,1013.19,4.74"/><path class="cls-1" d="M1044.16,50.7c-51.88,15.52-64.32-19.47-64.32-19.47s-7.11-20.37,15.23-15.41"/><path class="cls-1" d="M1046.25,21.47c-2.45,15.14-3.55,40.76-11,52.33-6,9.26-23.93,23.84-27.72-.68"/><path class="cls-1" d="M1036.91,51.63c-34.64,6.08-49-28.31-49-28.31s-8.28-20,8.46-11.83"/><path class="cls-1" d="M1027.14,35.46S1039.81,13.7,1039.81,11"/></g></g></svg>