<svg xmlns="http://www.w3.org/2000/svg" viewBox="0 0 263.33 252.27"><defs><style>.cls-1{fill:#f2f2f2;}</style></defs><title>yarn-ball3</title><g id="Layer_2" data-name="Layer 2"><g id="Layer_1-2" data-name="Layer 1"><path class="cls-1" d="M33.22,42.7C25,43.35,16.1,45.83,9.94,52.49,1.12,62,.14,77.57,7,98.66Q6.33,101.33,5.8,104c-.46.06-.92.11-1.38.18A4,4,0,0,0,4.49,112c-.2,1.53-.35,3.07-.48,4.6A4.13,4.13,0,0,0,3.87,118,120.23,120.23,0,0,0,5,145.44c-3.79,2.34-4.29,3.64-4.69,4.7a4,4,0,0,0,6.4,4.3c.1.42.22.85.32,1.28-1.09.57-2.18,1.14-3.27,1.75a4,4,0,1,0,3.88,6.91c.53-.3,1.06-.57,1.59-.85A126.56,126.56,0,0,0,14.28,177c.47,1,1,2.08,1.45,3.1a3.95,3.95,0,0,0,1.8,7,8.66,8.66,0,0,0,1.89,0,121.32,121.32,0,0,0,11.15,16.41c1.8,12.55,6.09,20.75,12.83,24.4,5.26,2.85,10.85,2.36,15.3,1.05a123,123,0,0,0,48.68,18.62c10.26,4.47,20.85,6.36,29.19,2.76a21.19,21.19,0,0,0,3.05-1.64c6.84,1.64,13.45,1.7,19-.71l.08,0c18.75,5.94,32.28,5.43,40.3-1.57,9.88-8.63,7.61-23.64,6.77-27.72a119.36,119.36,0,0,0,15.73-16.83c20-10.93,42.63-31.44,41.77-51.85-.29-7-3.16-13.28-8.55-18.89a49,49,0,0,0-8.12-6.67,121.66,121.66,0,0,0-48.33-93.61c-2.63-4.51-4.6-7.35-4.9-7.78a3.71,3.71,0,0,0-.39-.48,3.94,3.94,0,0,0-6.16.58A122.64,122.64,0,0,0,137.38,6.75l-.79-.85a20.68,20.68,0,0,0-3.54-3.08A3.95,3.95,0,0,0,127,6.08a120.07,120.07,0,0,0-19.18,1.13c-5.67-2.83-28.25-12.92-44.06-2.8A27.94,27.94,0,0,0,53.43,16.79c-5.78-.91-11.32-.47-15.35,2.65C32.63,23.65,31,31.31,33.22,42.7ZM232,96.15c2.12,5.11,1.49,11.11-.15,16.65-.46-2.14-1-4.27-1.6-6.37a18.33,18.33,0,0,0,1.61-4.28,3.28,3.28,0,0,0-2.55-3.77,3.12,3.12,0,0,0-1.69.1c-1-2.5-2-5-3.16-7.38.14-1,.23-2,.28-3A16.71,16.71,0,0,1,232,96.15Zm6.75,32.7c0,2.2-.08,4.41-.23,6.62-1.3-2.41-2.84-5.16-4.65-8.18l-.06-1C235.54,127.13,237.2,128,238.74,128.85Zm-35.67,81.62-.34-.89c.61-.18,1.23-.34,1.83-.53C204.07,209.53,203.57,210,203.07,210.47ZM12.63,111.09l2.33-.25c-.19.73-.39,1.46-.57,2.2-.69.06-1.38.14-2.07.21C12.41,112.53,12.52,111.81,12.63,111.09ZM19.89,84.3A113.5,113.5,0,0,1,30.74,63.88a30.69,30.69,0,0,0,1.94,5.21c-1,1.83-1.93,3.69-2.79,5.59a26.09,26.09,0,0,0-9.74,9.58Zm203.82,45.5c.16-1,.27-2.09.4-3.13.27.41.53.83.78,1.24C224.51,128.54,224.11,129.17,223.71,129.8ZM233,163.43q-.81,2.44-1.72,4.88l-.7,1.77c-.5-1-1.12-2.11-1.87-3.48,0-.11.07-.22.1-.33,1.57-1.94,2.74-3.53,3.48-4.55C232.59,162.42,232.83,163,233,163.43Zm-37.71,53.7-.52-1c.5-.38,1-.75,1.5-1.14.15.37.28.73.4,1.07ZM72.84,221.18c-.28,0-.56,0-.84-.06l.47-.42Zm-6.92-3.42-.09.07-.2-.12c-.2-.21-.42-.4-.62-.63C65.31,217.31,65.61,217.55,65.92,217.76Zm-25-31.41q-3.76-1-8-2.14c2.26-.64,4.69-1.35,7.22-2.13C40.41,183.56,40.65,185,40.93,186.35ZM26.71,174.8A89.93,89.93,0,0,1,23,165.48c5.79,2.14,11.12,4,16.07,5.49a3.53,3.53,0,0,0,.21.32c0,.31,0,.61,0,.92-3.69.75-7.45,1.45-11.32,2.06A3.15,3.15,0,0,0,26.71,174.8Zm4-18.46a10.82,10.82,0,0,1-1.54-1.56l.73-.23C30.15,155.14,30.41,155.74,30.69,156.34ZM194.18,116l1-.68c0,.45,0,.89.08,1.33l-1.31-.09C194.05,116.36,194.11,116.17,194.18,116Zm20.48,50.88a35.35,35.35,0,0,0-2.13-4.3c.17-.3.32-.61.48-.92.94-.43,1.83-.91,2.7-1.41.77,1.24,1.49,2.41,2.17,3.53C216.85,164.8,215.78,165.84,214.66,166.87Zm-5.17,4.44c-1.5,1.18-3.07,2.31-4.67,3.38.07-.22.15-.44.22-.66q1.88-2.47,3.59-5.06C208.93,169.67,209.22,170.47,209.49,171.31Zm-5.81-26.26a3.08,3.08,0,0,0-.87.82,32.74,32.74,0,0,1-2.22,2.68l-.51-.51c.44-1.92.86-3.86,1.22-5.84.48-.24.95-.49,1.41-.74l1,1.32C203.71,143.54,203.7,144.29,203.68,145.05ZM131,239l-.78-.36c-1.2-.56-2.41-1.18-3.63-1.84.39,0,.77-.1,1.15-.15,1.13.56,2.26,1.08,3.4,1.58C131.12,238.48,131.08,238.73,131,239ZM52.2,197.51c-.31-.4-.6-.83-.89-1.28l.75-.33C52.11,196.44,52.15,197,52.2,197.51Zm32.39-40c-2,.63-4.11,1.24-6.22,1.81L76.89,159c-.2-.5-.38-1-.57-1.49,3,.13,5.69.12,8.08,0Zm-58-10.28c0-.36,0-.73,0-1.1.11.33.23.66.35,1ZM48.14,136l.56.43-.81-.35Zm48.32-32-.77,0c-1.62-1.84-3.23-3.68-4.8-5.49.93-.08,1.87-.14,2.8-.19q1,1.16,1.92,2.31C96,101.85,96.24,103,96.46,103.91ZM72.57,76.69c1.06.24,2.14.51,3.25.81,2.52,2.82,5.14,5.81,7.8,8.89-1.21-.27-2.44-.52-3.67-.76C77.25,82.42,74.76,79.4,72.57,76.69ZM198.3,199.39c-.46-1-.94-1.94-1.44-2.95a44,44,0,0,0,6.28-1.69c-.47.48-.92,1-1.4,1.44C200.62,197.3,199.47,198.36,198.3,199.39Zm-10.37,4.73c.82-1,1.6-1.94,2.38-2.93.48,1,.93,1.93,1.36,2.85-1.12.22-2.25.43-3.4.62C188.16,204.48,188.05,204.3,187.93,204.12Zm-22-15.26c-.08-.44-.15-.88-.23-1.32l.27-.61c.21.25.4.5.6.75C166.36,188.07,166.15,188.47,165.94,188.86ZM134.6,201.2c-.78.08-1.56.17-2.34.23,1.28-2.2,2.57-4.52,3.84-6.91,0,1.71-.12,3.44-.22,5.18C135.45,200.22,135,200.72,134.6,201.2ZM117.3,114l-.39.06,0-.1Zm49.3-5.77-.43-.22c0-.38-.06-.77-.09-1.15.46-1,.9-2,1.31-3,.3.25.59.51.88.77C167.74,105.81,167.18,107,166.6,108.23Zm-25.32,12.45c-.23-.36-.46-.73-.68-1.1l1.06.73ZM144,88.92c-.45,2-1,4.09-1.64,6.23l-.85,1.37-.51-1c-.08-3.63-.31-7.32-.71-11.09,1,.61,2,1.22,3.05,1.85C143.56,87.13,143.79,88,144,88.92Zm-15.4,2.77c.25,1.06.51,2.13.74,3.19l-.3-.06c-.22-1.13-.45-2.26-.69-3.4Zm41.68,87.94c-.25-.31-.51-.62-.77-.92.31-.79.62-1.57.92-2.37a3.71,3.71,0,0,0,.48,0l1.18-.09c-.47,1.1-1,2.18-1.44,3.25ZM68.8,41.34c.51-.42,1-.84,1.54-1.25l.07.07c.45,1.31.94,2.78,1.47,4.37Q70.38,42.93,68.8,41.34Zm-2.16,6.9-.56-.11c0-.14,0-.28,0-.42ZM130.4,178.49l.43-.31c-.48.88-1,1.73-1.44,2.57C129.74,180,130.07,179.23,130.4,178.49Zm54.4,19.2c-.18.23-.37.45-.56.68-.15-.23-.29-.45-.45-.67Zm-1.44-24,1.51-.61c-.25.56-.51,1.12-.77,1.68C183.86,174.37,183.61,174,183.36,173.66ZM81.73,38.05Q83,39,84.61,40.21q.33,1.51.69,3.09c-.29.16-.58.29-.87.44a14.48,14.48,0,0,0-3.51-2.09c-1.35-1.39-2.57-2.62-3.69-3.72Q79.49,38,81.73,38.05Zm35.48,68c.34.6.68,1.2,1,1.81-1-.1-2-.21-2.94-.29,0-.18,0-.36-.08-.54.35-.47.69-1,1-1.44ZM68.33,133.9l-.48.38c-.06-.17-.11-.34-.18-.52Zm-24.47,7.33-.64-.21s0-.05,0-.07Zm38.19-2.06c1.43-1,2.86-2,4.3-3.14,1.62.07,3.15.1,4.58.09-2.43.9-5,1.93-7.62,3.1ZM141,235.05l1.56-.07c-.06.14-.11.3-.17.44Zm35.09-28.76c.63-1,1.26-2,1.9-3l.81,1.23c-.32.33-.63.66-1,1s-.48.45-.72.68ZM188,145.51c1.75,1.51,3.38,3,4.89,4.42-.25,1.23-.51,2.45-.8,3.67v0c-1.61-1.26-3.35-2.58-5.2-3.93.22-1.23.43-2.49.62-3.76Zm34.29,10.16c1-.82,1.88-1.63,2.69-2.42-.16,1.15-.38,2.29-.59,3.43-.27.32-.55.66-.85,1ZM183.06,32.59l0-.07.17.17Zm-82.82-1.28c-.86-.41-1.71-.79-2.53-1.15-.29-.57-.57-1.14-.87-1.71l1.71-.34C99.14,29.18,99.68,30.24,100.24,31.31Zm7.09-15.19,0,0,0,0ZM75.09,63.26c.2.21.4.41.61.61-.7.19-1.38.34-2.08.54C74.1,64,74.59,63.64,75.09,63.26ZM61.67,82.36l.62.81-.72-.06C61.6,82.86,61.64,82.61,61.67,82.36Zm7.53,9.51c.82,1,1.66,2,2.52,3l-.5.12c-1.09-1.13-2.16-2.24-3.23-3.33ZM20.38,146.68a28,28,0,0,0,.19,2.8l-1.34.54c-.14-.89-.25-1.79-.36-2.69ZM23.17,157c.18.29.35.6.56.88a15.88,15.88,0,0,0,1.17,1.48L21,157.89C21.7,157.58,22.43,157.3,23.17,157Zm38.7,5.13-.82-.26.61-.21ZM51.4,158.2l-.68.18-.56-.2.65-.62.54.2C51.37,157.9,51.39,158.05,51.4,158.2Zm-1.18,29.88-.74.32-1.6-.36a54.76,54.76,0,0,1-1.17-5.69C47.81,184.29,49,186.2,50.22,188.08Zm-10.5,4.56-1.67.76c-.38-.5-.78-1-1.15-1.49C37.86,192.17,38.8,192.41,39.72,192.64Zm5.7,6.13a22,22,0,0,0,4.5,5.58l-2,0c-.46-.43-.92-.86-1.36-1.31-1.1-1.09-2.16-2.2-3.2-3.33Zm49.14,19.58.21.27-.31.36-.39-.2ZM90,223.88c-1,1-2,2.1-3,3.15l-.65-.57c.55-.54,1.55-1.54,2.86-3C89.51,223.63,89.78,223.75,90,223.88Zm7.55,3.48c2.07.84,4.15,1.64,6.25,2.35a3,3,0,0,0-.14.79c-2.63-.3-5.24-.72-7.84-1.24C96.46,228.62,97,228,97.59,227.36Zm31-11.41c-1.16,1.57-2.37,3.18-3.65,4.84-1.64-.23-3.29-.49-4.92-.82q1.38-1.84,2.86-3.93C124.76,216.06,126.66,216,128.56,216Zm-9.09,24.12L121,241l-2.25-.11Zm38.38-4.93a18.06,18.06,0,0,1-2,.71l2-3c1.62-.36,3.23-.74,4.83-1.18A14.56,14.56,0,0,1,157.85,235.14Zm45.32-134.52c-.19.08-.35.18-.53.25-.14-1.14-.33-2.29-.51-3.44.66.75,1.32,1.49,2,2.23C203.79,100,203.49,100.3,203.17,100.62Zm3.28-10.24c-.31-.33-.61-.67-.92-1l.95.83ZM95.94,17.66a2.75,2.75,0,0,0,0,.57c-1.9.46-3.8,1-5.69,1.55-.84.26-1.67.57-2.5.85a4.61,4.61,0,0,0-.28-.38C90.24,19.27,93.08,18.4,95.94,17.66ZM42.62,90.44c0,.07-.06.13-.08.19l-.07-.18Zm-21.09,30A100.69,100.69,0,0,0,23,132.09c-.51,1.54-.94,3-1.3,4.48L18.15,135a91.58,91.58,0,0,1,1.29-14.41ZM82,232.15l-.16.15c-.89-.37-1.77-.76-2.65-1.15C80.09,231.5,81,231.83,82,232.15Zm17.88,4.29a100,100,0,0,0,11.43,1l-2.1,2.41c-1.61-.23-3.22-.5-4.82-.81C102.86,238.24,101.35,237.36,99.85,236.44Zm72.73-7.95a94.84,94.84,0,0,0,15.59-7.85c.23.45.42.84.6,1.2a113.39,113.39,0,0,1-16.86,9.33C172.15,230.3,172.38,229.42,172.58,228.49Zm42.55-32.2c-.08-.19-.18-.42-.3-.67a93,93,0,0,0,10.35-18.75,3.91,3.91,0,0,0,1.75,1.4,113,113,0,0,1-10.67,17.43Zm18.19-50.5c.11-.84.2-1.68.29-2.53,1.82,3.59,2.74,5.71,2.77,5.79a3.37,3.37,0,0,0,.25.46c-.12.64-.24,1.28-.37,1.92Q235,148.85,233.32,145.79ZM160.89,20.69c-1.34-.51-2.7-1-4.06-1.46l-1-.88q3.52,1,7,2.23C162.16,20.61,161.54,20.64,160.89,20.69Zm-79,1.65c0,.16,0,.31,0,.5-.36.15-.74.28-1.09.43-1.06.46-2.09.95-3.13,1.44l-1.06-.05,1.86-.86C79.6,23.29,80.75,22.81,81.9,22.34ZM15.75,57.88c3.75-4.06,9.14-6.05,14.65-6.9-.4.49-.79,1-1.18,1.48A4,4,0,0,0,28,54a121.26,121.26,0,0,0-16.5,29.9c0,.12-.09.25-.14.38C9.15,72.32,10.6,63.46,15.75,57.88ZM14.56,101a4.06,4.06,0,0,0,.59-2.39q.76-2.94,1.69-5.85l.78-.11a26.86,26.86,0,0,0,.6,8.22c-.22.57-.41,1.15-.63,1.72-1.16.11-2.34.25-3.52.38C14.22,102.3,14.4,101.65,14.56,101Zm-2.94,20.29,1.19-.13a97,97,0,0,0-1.09,13.69A111.54,111.54,0,0,1,11.62,121.28Zm34.72,101c-2.84-1.54-5.11-4.51-6.79-8.78a123.08,123.08,0,0,0,11.51,10.07A11,11,0,0,1,46.34,222.29Zm147.49,18.16c-3.78,3.3-11.5,5.7-27.25,1.58l.19-.24c2.75-1,5.49-2.09,8.2-3.31a121.72,121.72,0,0,0,23.65-13.91C199,229.28,198.53,236.35,193.83,240.45Zm61.56-90.1c.51,11.87-10.28,25-23.21,35a122.53,122.53,0,0,0,6.5-14.25,121.15,121.15,0,0,0,7.81-36.93C252.16,139.05,255.15,144.44,255.39,150.35ZM236.6,118.86c.51-1.36,1-2.73,1.37-4.1.2,1.67.36,3.33.49,5Zm-6.83-35a30.58,30.58,0,0,0-5.72-3.14A21.19,21.19,0,0,0,222.34,76a21.82,21.82,0,0,0-1.71-2.82,46.79,46.79,0,0,0-2.11-10,114.11,114.11,0,0,1,10.17,18.05C229.07,82.14,229.41,83,229.77,83.85ZM68,11.09c7.48-4.8,17.69-3.36,25.54-1a120.34,120.34,0,0,0-18.31,6.48q-4.33,1.93-8.46,4.17c-1.77-.73-3.62-1.41-5.5-2A19.65,19.65,0,0,1,68,11.09ZM42.92,25.71c1.82-1.41,4.63-1.72,7.92-1.33a60.6,60.6,0,0,0-1.31,7.69q-4.59,3.61-8.8,7.64C39.55,32.61,40.28,27.75,42.92,25.71Z"/></g></g></svg>